G04 #@! TF.FileFunction,Soldermask,Top*
%FSLAX46Y46*%
G04 Gerber Fmt 4.6, Leading zero omitted, Abs format (unit mm)*
G04 Created by KiCad (PCBNEW 4.0.7) date 04/30/18 22:22:12*
%MOMM*%
%LPD*%
G01*
G04 APERTURE LIST*
%ADD10C,0.100000*%
%ADD11C,4.800000*%
%ADD12R,1.150000X1.600000*%
%ADD13R,1.300000X1.600000*%
%ADD14R,1.050000X1.960000*%
%ADD15R,1.900000X2.300000*%
%ADD16C,1.850000*%
%ADD17R,0.800000X1.750000*%
%ADD18O,1.600000X2.300000*%
%ADD19R,1.600000X2.300000*%
%ADD20R,1.600000X1.300000*%
%ADD21R,2.400000X1.050000*%
%ADD22R,2.100000X2.100000*%
%ADD23O,2.100000X2.100000*%
%ADD24C,2.400000*%
%ADD25R,1.050000X1.460000*%
G04 APERTURE END LIST*
D10*
D11*
X17526000Y-17526000D03*
X17526000Y-39624000D03*
X31750000Y-39624000D03*
D12*
X27686000Y-23302000D03*
X27686000Y-21402000D03*
X29464000Y-27620000D03*
X29464000Y-25720000D03*
D13*
X30480000Y-18626000D03*
X30480000Y-16426000D03*
X32766000Y-16426000D03*
X32766000Y-18626000D03*
D14*
X23942000Y-24210000D03*
X24892000Y-24210000D03*
X25842000Y-24210000D03*
X25842000Y-21510000D03*
X23942000Y-21510000D03*
D15*
X23956000Y-16414000D03*
D16*
X27456000Y-19114000D03*
D17*
X25606000Y-19114000D03*
X26256000Y-19114000D03*
X23656000Y-19114000D03*
X24306000Y-19114000D03*
X24956000Y-19114000D03*
D16*
X22456000Y-19114000D03*
D15*
X25956000Y-16414000D03*
D18*
X28456000Y-16414000D03*
X21456000Y-16414000D03*
D19*
X22056000Y-16414000D03*
X27856000Y-16414000D03*
D13*
X30480000Y-22944000D03*
X30480000Y-20744000D03*
X32766000Y-22944000D03*
X32766000Y-20744000D03*
X22098000Y-23706000D03*
X22098000Y-21506000D03*
D20*
X17442000Y-28194000D03*
X19642000Y-28194000D03*
X19642000Y-21336000D03*
X17442000Y-21336000D03*
X19642000Y-22860000D03*
X17442000Y-22860000D03*
D13*
X15748000Y-30564000D03*
X15748000Y-28364000D03*
D21*
X23436000Y-26990000D03*
X23436000Y-27940000D03*
X23436000Y-28890000D03*
X26856000Y-28890000D03*
X26856000Y-27940000D03*
X26856000Y-26990000D03*
D14*
X19492000Y-30908000D03*
X18542000Y-30908000D03*
X17592000Y-30908000D03*
X17592000Y-33608000D03*
X19492000Y-33608000D03*
D22*
X27178000Y-40640000D03*
D23*
X24638000Y-40640000D03*
X22098000Y-40640000D03*
D24*
X22352000Y-35996000D03*
X22352000Y-31496000D03*
X28852000Y-35996000D03*
X28852000Y-31496000D03*
D25*
X19492000Y-24300000D03*
X18542000Y-24300000D03*
X17592000Y-24300000D03*
X17592000Y-26500000D03*
X19492000Y-26500000D03*
X18542000Y-26500000D03*
D22*
X31750000Y-28194000D03*
D23*
X31750000Y-25654000D03*
M02*
