G04 #@! TF.FileFunction,Copper,L2,Bot,Signal*
%FSLAX46Y46*%
G04 Gerber Fmt 4.6, Leading zero omitted, Abs format (unit mm)*
G04 Created by KiCad (PCBNEW 4.0.7) date 04/30/18 22:22:12*
%MOMM*%
%LPD*%
G01*
G04 APERTURE LIST*
%ADD10C,0.100000*%
%ADD11C,4.400000*%
%ADD12C,1.450000*%
%ADD13O,1.200000X1.900000*%
%ADD14R,1.700000X1.700000*%
%ADD15O,1.700000X1.700000*%
%ADD16C,2.000000*%
%ADD17C,0.600000*%
%ADD18C,0.508000*%
%ADD19C,0.254000*%
G04 APERTURE END LIST*
D10*
D11*
X17526000Y-17526000D03*
X17526000Y-39624000D03*
X31750000Y-39624000D03*
D12*
X27456000Y-19114000D03*
X22456000Y-19114000D03*
D13*
X28456000Y-16414000D03*
X21456000Y-16414000D03*
D14*
X27178000Y-40640000D03*
D15*
X24638000Y-40640000D03*
X22098000Y-40640000D03*
D16*
X22352000Y-35996000D03*
X22352000Y-31496000D03*
X28852000Y-35996000D03*
X28852000Y-31496000D03*
D14*
X31750000Y-28194000D03*
D15*
X31750000Y-25654000D03*
D17*
X25654000Y-18034000D03*
X23622000Y-17780000D03*
X31750000Y-16256000D03*
X16002000Y-32004000D03*
X28956000Y-22606000D03*
X24892000Y-22860000D03*
X18542000Y-29464000D03*
X16002000Y-20574000D03*
X23368000Y-29718000D03*
X22606000Y-26162000D03*
X20066000Y-20574000D03*
X26670000Y-20574000D03*
X28448000Y-27686000D03*
X26924000Y-24638000D03*
X16764000Y-26500000D03*
X17526000Y-25400000D03*
D18*
X22606000Y-26162000D02*
X23368000Y-26924000D01*
X23368000Y-26924000D02*
X23368000Y-29718000D01*
X20066000Y-20574000D02*
X22606000Y-23114000D01*
X22606000Y-23114000D02*
X22606000Y-26162000D01*
X20066000Y-20574000D02*
X26670000Y-20574000D01*
X26924000Y-26162000D02*
X28448000Y-27686000D01*
X26924000Y-24638000D02*
X26924000Y-26162000D01*
X16764000Y-26500000D02*
X17864000Y-26500000D01*
X19558000Y-28956000D02*
X19558000Y-35560000D01*
X19558000Y-35560000D02*
X24638000Y-40640000D01*
X19558000Y-28194000D02*
X19558000Y-28956000D01*
X17864000Y-26500000D02*
X19558000Y-28194000D01*
X20574000Y-27686000D02*
X20574000Y-27940000D01*
X20574000Y-27940000D02*
X20574000Y-34218000D01*
X22352000Y-35996000D02*
X20574000Y-34218000D01*
X17526000Y-25400000D02*
X18034000Y-25400000D01*
X18034000Y-25400000D02*
X18288000Y-25400000D01*
X18288000Y-25400000D02*
X20574000Y-27686000D01*
X22352000Y-35996000D02*
X28852000Y-35996000D01*
X22352000Y-31496000D02*
X28852000Y-31496000D01*
D19*
G36*
X20221000Y-15937000D02*
X20221000Y-16287000D01*
X21329000Y-16287000D01*
X21329000Y-16267000D01*
X21583000Y-16267000D01*
X21583000Y-16287000D01*
X22691000Y-16287000D01*
X22691000Y-15937000D01*
X22621073Y-15710000D01*
X27290927Y-15710000D01*
X27221000Y-15937000D01*
X27221000Y-16287000D01*
X28329000Y-16287000D01*
X28329000Y-16267000D01*
X28583000Y-16267000D01*
X28583000Y-16287000D01*
X29691000Y-16287000D01*
X29691000Y-15937000D01*
X29621073Y-15710000D01*
X33594000Y-15710000D01*
X33594000Y-37458422D01*
X33357995Y-37222005D01*
X32316390Y-36789493D01*
X31188558Y-36788509D01*
X30146199Y-37219202D01*
X29348005Y-38016005D01*
X28915493Y-39057610D01*
X28914509Y-40185442D01*
X29345202Y-41227801D01*
X29584982Y-41468000D01*
X28663000Y-41468000D01*
X28663000Y-40925750D01*
X28504250Y-40767000D01*
X27305000Y-40767000D01*
X27305000Y-40787000D01*
X27051000Y-40787000D01*
X27051000Y-40767000D01*
X27031000Y-40767000D01*
X27031000Y-40513000D01*
X27051000Y-40513000D01*
X27051000Y-39313750D01*
X27305000Y-39313750D01*
X27305000Y-40513000D01*
X28504250Y-40513000D01*
X28663000Y-40354250D01*
X28663000Y-39663691D01*
X28566327Y-39430302D01*
X28387699Y-39251673D01*
X28154310Y-39155000D01*
X27463750Y-39155000D01*
X27305000Y-39313750D01*
X27051000Y-39313750D01*
X26892250Y-39155000D01*
X26201690Y-39155000D01*
X25968301Y-39251673D01*
X25789673Y-39430302D01*
X25717403Y-39604777D01*
X25688054Y-39560853D01*
X25206285Y-39238946D01*
X24638000Y-39125907D01*
X24423758Y-39168522D01*
X22824908Y-37569672D01*
X23276943Y-37382894D01*
X23737278Y-36923363D01*
X23753208Y-36885000D01*
X27450255Y-36885000D01*
X27465106Y-36920943D01*
X27924637Y-37381278D01*
X28525352Y-37630716D01*
X29175795Y-37631284D01*
X29776943Y-37382894D01*
X30237278Y-36923363D01*
X30486716Y-36322648D01*
X30487284Y-35672205D01*
X30238894Y-35071057D01*
X29779363Y-34610722D01*
X29178648Y-34361284D01*
X28528205Y-34360716D01*
X27927057Y-34609106D01*
X27466722Y-35068637D01*
X27450792Y-35107000D01*
X23753745Y-35107000D01*
X23738894Y-35071057D01*
X23279363Y-34610722D01*
X22678648Y-34361284D01*
X22028205Y-34360716D01*
X21989815Y-34376579D01*
X21463000Y-33849764D01*
X21463000Y-32897208D01*
X22025352Y-33130716D01*
X22675795Y-33131284D01*
X23276943Y-32882894D01*
X23737278Y-32423363D01*
X23753208Y-32385000D01*
X27450255Y-32385000D01*
X27465106Y-32420943D01*
X27924637Y-32881278D01*
X28525352Y-33130716D01*
X29175795Y-33131284D01*
X29776943Y-32882894D01*
X30237278Y-32423363D01*
X30486716Y-31822648D01*
X30487284Y-31172205D01*
X30238894Y-30571057D01*
X29779363Y-30110722D01*
X29178648Y-29861284D01*
X28528205Y-29860716D01*
X27927057Y-30109106D01*
X27466722Y-30568637D01*
X27450792Y-30607000D01*
X23753745Y-30607000D01*
X23740787Y-30575639D01*
X23896943Y-30511117D01*
X24160192Y-30248327D01*
X24302838Y-29904799D01*
X24303162Y-29532833D01*
X24257000Y-29421112D01*
X24257000Y-26924000D01*
X24189329Y-26583794D01*
X23996618Y-26295382D01*
X23495000Y-25793764D01*
X23495000Y-24823167D01*
X25988838Y-24823167D01*
X26035000Y-24934888D01*
X26035000Y-26162000D01*
X26102671Y-26502206D01*
X26262120Y-26740838D01*
X26295382Y-26790618D01*
X27609238Y-28104474D01*
X27654883Y-28214943D01*
X27917673Y-28478192D01*
X28261201Y-28620838D01*
X28633167Y-28621162D01*
X28976943Y-28479117D01*
X29240192Y-28216327D01*
X29382838Y-27872799D01*
X29383162Y-27500833D01*
X29318361Y-27344000D01*
X30252560Y-27344000D01*
X30252560Y-29044000D01*
X30296838Y-29279317D01*
X30435910Y-29495441D01*
X30648110Y-29640431D01*
X30900000Y-29691440D01*
X32600000Y-29691440D01*
X32835317Y-29647162D01*
X33051441Y-29508090D01*
X33196431Y-29295890D01*
X33247440Y-29044000D01*
X33247440Y-27344000D01*
X33203162Y-27108683D01*
X33064090Y-26892559D01*
X32851890Y-26747569D01*
X32743893Y-26725699D01*
X33021645Y-26420924D01*
X33191476Y-26010890D01*
X33070155Y-25781000D01*
X31877000Y-25781000D01*
X31877000Y-25801000D01*
X31623000Y-25801000D01*
X31623000Y-25781000D01*
X30429845Y-25781000D01*
X30308524Y-26010890D01*
X30478355Y-26420924D01*
X30754501Y-26723937D01*
X30664683Y-26740838D01*
X30448559Y-26879910D01*
X30303569Y-27092110D01*
X30252560Y-27344000D01*
X29318361Y-27344000D01*
X29241117Y-27157057D01*
X28978327Y-26893808D01*
X28866687Y-26847451D01*
X27813000Y-25793764D01*
X27813000Y-25297110D01*
X30308524Y-25297110D01*
X30429845Y-25527000D01*
X31623000Y-25527000D01*
X31623000Y-24333181D01*
X31877000Y-24333181D01*
X31877000Y-25527000D01*
X33070155Y-25527000D01*
X33191476Y-25297110D01*
X33021645Y-24887076D01*
X32631358Y-24458817D01*
X32106892Y-24212514D01*
X31877000Y-24333181D01*
X31623000Y-24333181D01*
X31393108Y-24212514D01*
X30868642Y-24458817D01*
X30478355Y-24887076D01*
X30308524Y-25297110D01*
X27813000Y-25297110D01*
X27813000Y-24935189D01*
X27858838Y-24824799D01*
X27859162Y-24452833D01*
X27717117Y-24109057D01*
X27454327Y-23845808D01*
X27110799Y-23703162D01*
X26738833Y-23702838D01*
X26395057Y-23844883D01*
X26131808Y-24107673D01*
X25989162Y-24451201D01*
X25988838Y-24823167D01*
X23495000Y-24823167D01*
X23495000Y-23114000D01*
X23427329Y-22773794D01*
X23234618Y-22485382D01*
X22212236Y-21463000D01*
X26372811Y-21463000D01*
X26483201Y-21508838D01*
X26855167Y-21509162D01*
X27198943Y-21367117D01*
X27462192Y-21104327D01*
X27604838Y-20760799D01*
X27605093Y-20468046D01*
X27797444Y-20457949D01*
X28164878Y-20305753D01*
X28229793Y-20067398D01*
X27456000Y-19293605D01*
X27441858Y-19307748D01*
X27262253Y-19128143D01*
X27276395Y-19114000D01*
X27635605Y-19114000D01*
X28409398Y-19887793D01*
X28647753Y-19822878D01*
X28828312Y-19312854D01*
X28799949Y-18772556D01*
X28647753Y-18405122D01*
X28409398Y-18340207D01*
X27635605Y-19114000D01*
X27276395Y-19114000D01*
X26502602Y-18340207D01*
X26264247Y-18405122D01*
X26083688Y-18915146D01*
X26112051Y-19455444D01*
X26207136Y-19685000D01*
X23696565Y-19685000D01*
X23828312Y-19312854D01*
X23799949Y-18772556D01*
X23647753Y-18405122D01*
X23409398Y-18340207D01*
X22635605Y-19114000D01*
X22649748Y-19128143D01*
X22470143Y-19307748D01*
X22456000Y-19293605D01*
X22441858Y-19307748D01*
X22262253Y-19128143D01*
X22276395Y-19114000D01*
X21502602Y-18340207D01*
X21264247Y-18405122D01*
X21083688Y-18915146D01*
X21112051Y-19455444D01*
X21207136Y-19685000D01*
X20363189Y-19685000D01*
X20252799Y-19639162D01*
X19880833Y-19638838D01*
X19537057Y-19780883D01*
X19273808Y-20043673D01*
X19131162Y-20387201D01*
X19130838Y-20759167D01*
X19272883Y-21102943D01*
X19535673Y-21366192D01*
X19647313Y-21412549D01*
X21717000Y-23482236D01*
X21717000Y-25864811D01*
X21671162Y-25975201D01*
X21670838Y-26347167D01*
X21812883Y-26690943D01*
X22075673Y-26954192D01*
X22187313Y-27000549D01*
X22479000Y-27292236D01*
X22479000Y-29420811D01*
X22433162Y-29531201D01*
X22432875Y-29861069D01*
X22028205Y-29860716D01*
X21463000Y-30094255D01*
X21463000Y-27686000D01*
X21395329Y-27345794D01*
X21202618Y-27057382D01*
X18916618Y-24771382D01*
X18628206Y-24578671D01*
X18288000Y-24511000D01*
X17823189Y-24511000D01*
X17712799Y-24465162D01*
X17340833Y-24464838D01*
X16997057Y-24606883D01*
X16733808Y-24869673D01*
X16591162Y-25213201D01*
X16590856Y-25564848D01*
X16578833Y-25564838D01*
X16235057Y-25706883D01*
X15971808Y-25969673D01*
X15829162Y-26313201D01*
X15828838Y-26685167D01*
X15970883Y-27028943D01*
X16233673Y-27292192D01*
X16577201Y-27434838D01*
X16949167Y-27435162D01*
X17060888Y-27389000D01*
X17495764Y-27389000D01*
X18669000Y-28562236D01*
X18669000Y-35560000D01*
X18736671Y-35900206D01*
X18800679Y-35996000D01*
X18929382Y-36188618D01*
X21905051Y-39164287D01*
X21529715Y-39238946D01*
X21047946Y-39560853D01*
X20726039Y-40042622D01*
X20613000Y-40610907D01*
X20613000Y-40669093D01*
X20726039Y-41237378D01*
X20880135Y-41468000D01*
X19691578Y-41468000D01*
X19927995Y-41231995D01*
X20360507Y-40190390D01*
X20361491Y-39062558D01*
X19930798Y-38020199D01*
X19133995Y-37222005D01*
X18092390Y-36789493D01*
X16964558Y-36788509D01*
X15922199Y-37219202D01*
X15710000Y-37431031D01*
X15710000Y-19719627D01*
X15918005Y-19927995D01*
X16959610Y-20360507D01*
X18087442Y-20361491D01*
X19129801Y-19930798D01*
X19927995Y-19133995D01*
X20360507Y-18092390D01*
X20361158Y-17345988D01*
X20363610Y-17353947D01*
X20672526Y-17727080D01*
X21100719Y-17953592D01*
X21138391Y-17957462D01*
X21329000Y-17832731D01*
X21329000Y-16541000D01*
X21583000Y-16541000D01*
X21583000Y-17832731D01*
X21742988Y-17937424D01*
X21682207Y-18160602D01*
X22456000Y-18934395D01*
X23229793Y-18160602D01*
X26682207Y-18160602D01*
X27456000Y-18934395D01*
X28229793Y-18160602D01*
X28169012Y-17937424D01*
X28329000Y-17832731D01*
X28329000Y-16541000D01*
X28583000Y-16541000D01*
X28583000Y-17832731D01*
X28773609Y-17957462D01*
X28811281Y-17953592D01*
X29239474Y-17727080D01*
X29548390Y-17353947D01*
X29691000Y-16891000D01*
X29691000Y-16541000D01*
X28583000Y-16541000D01*
X28329000Y-16541000D01*
X27221000Y-16541000D01*
X27221000Y-16891000D01*
X27363610Y-17353947D01*
X27672526Y-17727080D01*
X27791768Y-17790158D01*
X27654854Y-17741688D01*
X27114556Y-17770051D01*
X26747122Y-17922247D01*
X26682207Y-18160602D01*
X23229793Y-18160602D01*
X23164878Y-17922247D01*
X22654854Y-17741688D01*
X22163055Y-17767505D01*
X22239474Y-17727080D01*
X22548390Y-17353947D01*
X22691000Y-16891000D01*
X22691000Y-16541000D01*
X21583000Y-16541000D01*
X21329000Y-16541000D01*
X20221000Y-16541000D01*
X20221000Y-16624543D01*
X19930798Y-15922199D01*
X19718969Y-15710000D01*
X20290927Y-15710000D01*
X20221000Y-15937000D01*
X20221000Y-15937000D01*
G37*
X20221000Y-15937000D02*
X20221000Y-16287000D01*
X21329000Y-16287000D01*
X21329000Y-16267000D01*
X21583000Y-16267000D01*
X21583000Y-16287000D01*
X22691000Y-16287000D01*
X22691000Y-15937000D01*
X22621073Y-15710000D01*
X27290927Y-15710000D01*
X27221000Y-15937000D01*
X27221000Y-16287000D01*
X28329000Y-16287000D01*
X28329000Y-16267000D01*
X28583000Y-16267000D01*
X28583000Y-16287000D01*
X29691000Y-16287000D01*
X29691000Y-15937000D01*
X29621073Y-15710000D01*
X33594000Y-15710000D01*
X33594000Y-37458422D01*
X33357995Y-37222005D01*
X32316390Y-36789493D01*
X31188558Y-36788509D01*
X30146199Y-37219202D01*
X29348005Y-38016005D01*
X28915493Y-39057610D01*
X28914509Y-40185442D01*
X29345202Y-41227801D01*
X29584982Y-41468000D01*
X28663000Y-41468000D01*
X28663000Y-40925750D01*
X28504250Y-40767000D01*
X27305000Y-40767000D01*
X27305000Y-40787000D01*
X27051000Y-40787000D01*
X27051000Y-40767000D01*
X27031000Y-40767000D01*
X27031000Y-40513000D01*
X27051000Y-40513000D01*
X27051000Y-39313750D01*
X27305000Y-39313750D01*
X27305000Y-40513000D01*
X28504250Y-40513000D01*
X28663000Y-40354250D01*
X28663000Y-39663691D01*
X28566327Y-39430302D01*
X28387699Y-39251673D01*
X28154310Y-39155000D01*
X27463750Y-39155000D01*
X27305000Y-39313750D01*
X27051000Y-39313750D01*
X26892250Y-39155000D01*
X26201690Y-39155000D01*
X25968301Y-39251673D01*
X25789673Y-39430302D01*
X25717403Y-39604777D01*
X25688054Y-39560853D01*
X25206285Y-39238946D01*
X24638000Y-39125907D01*
X24423758Y-39168522D01*
X22824908Y-37569672D01*
X23276943Y-37382894D01*
X23737278Y-36923363D01*
X23753208Y-36885000D01*
X27450255Y-36885000D01*
X27465106Y-36920943D01*
X27924637Y-37381278D01*
X28525352Y-37630716D01*
X29175795Y-37631284D01*
X29776943Y-37382894D01*
X30237278Y-36923363D01*
X30486716Y-36322648D01*
X30487284Y-35672205D01*
X30238894Y-35071057D01*
X29779363Y-34610722D01*
X29178648Y-34361284D01*
X28528205Y-34360716D01*
X27927057Y-34609106D01*
X27466722Y-35068637D01*
X27450792Y-35107000D01*
X23753745Y-35107000D01*
X23738894Y-35071057D01*
X23279363Y-34610722D01*
X22678648Y-34361284D01*
X22028205Y-34360716D01*
X21989815Y-34376579D01*
X21463000Y-33849764D01*
X21463000Y-32897208D01*
X22025352Y-33130716D01*
X22675795Y-33131284D01*
X23276943Y-32882894D01*
X23737278Y-32423363D01*
X23753208Y-32385000D01*
X27450255Y-32385000D01*
X27465106Y-32420943D01*
X27924637Y-32881278D01*
X28525352Y-33130716D01*
X29175795Y-33131284D01*
X29776943Y-32882894D01*
X30237278Y-32423363D01*
X30486716Y-31822648D01*
X30487284Y-31172205D01*
X30238894Y-30571057D01*
X29779363Y-30110722D01*
X29178648Y-29861284D01*
X28528205Y-29860716D01*
X27927057Y-30109106D01*
X27466722Y-30568637D01*
X27450792Y-30607000D01*
X23753745Y-30607000D01*
X23740787Y-30575639D01*
X23896943Y-30511117D01*
X24160192Y-30248327D01*
X24302838Y-29904799D01*
X24303162Y-29532833D01*
X24257000Y-29421112D01*
X24257000Y-26924000D01*
X24189329Y-26583794D01*
X23996618Y-26295382D01*
X23495000Y-25793764D01*
X23495000Y-24823167D01*
X25988838Y-24823167D01*
X26035000Y-24934888D01*
X26035000Y-26162000D01*
X26102671Y-26502206D01*
X26262120Y-26740838D01*
X26295382Y-26790618D01*
X27609238Y-28104474D01*
X27654883Y-28214943D01*
X27917673Y-28478192D01*
X28261201Y-28620838D01*
X28633167Y-28621162D01*
X28976943Y-28479117D01*
X29240192Y-28216327D01*
X29382838Y-27872799D01*
X29383162Y-27500833D01*
X29318361Y-27344000D01*
X30252560Y-27344000D01*
X30252560Y-29044000D01*
X30296838Y-29279317D01*
X30435910Y-29495441D01*
X30648110Y-29640431D01*
X30900000Y-29691440D01*
X32600000Y-29691440D01*
X32835317Y-29647162D01*
X33051441Y-29508090D01*
X33196431Y-29295890D01*
X33247440Y-29044000D01*
X33247440Y-27344000D01*
X33203162Y-27108683D01*
X33064090Y-26892559D01*
X32851890Y-26747569D01*
X32743893Y-26725699D01*
X33021645Y-26420924D01*
X33191476Y-26010890D01*
X33070155Y-25781000D01*
X31877000Y-25781000D01*
X31877000Y-25801000D01*
X31623000Y-25801000D01*
X31623000Y-25781000D01*
X30429845Y-25781000D01*
X30308524Y-26010890D01*
X30478355Y-26420924D01*
X30754501Y-26723937D01*
X30664683Y-26740838D01*
X30448559Y-26879910D01*
X30303569Y-27092110D01*
X30252560Y-27344000D01*
X29318361Y-27344000D01*
X29241117Y-27157057D01*
X28978327Y-26893808D01*
X28866687Y-26847451D01*
X27813000Y-25793764D01*
X27813000Y-25297110D01*
X30308524Y-25297110D01*
X30429845Y-25527000D01*
X31623000Y-25527000D01*
X31623000Y-24333181D01*
X31877000Y-24333181D01*
X31877000Y-25527000D01*
X33070155Y-25527000D01*
X33191476Y-25297110D01*
X33021645Y-24887076D01*
X32631358Y-24458817D01*
X32106892Y-24212514D01*
X31877000Y-24333181D01*
X31623000Y-24333181D01*
X31393108Y-24212514D01*
X30868642Y-24458817D01*
X30478355Y-24887076D01*
X30308524Y-25297110D01*
X27813000Y-25297110D01*
X27813000Y-24935189D01*
X27858838Y-24824799D01*
X27859162Y-24452833D01*
X27717117Y-24109057D01*
X27454327Y-23845808D01*
X27110799Y-23703162D01*
X26738833Y-23702838D01*
X26395057Y-23844883D01*
X26131808Y-24107673D01*
X25989162Y-24451201D01*
X25988838Y-24823167D01*
X23495000Y-24823167D01*
X23495000Y-23114000D01*
X23427329Y-22773794D01*
X23234618Y-22485382D01*
X22212236Y-21463000D01*
X26372811Y-21463000D01*
X26483201Y-21508838D01*
X26855167Y-21509162D01*
X27198943Y-21367117D01*
X27462192Y-21104327D01*
X27604838Y-20760799D01*
X27605093Y-20468046D01*
X27797444Y-20457949D01*
X28164878Y-20305753D01*
X28229793Y-20067398D01*
X27456000Y-19293605D01*
X27441858Y-19307748D01*
X27262253Y-19128143D01*
X27276395Y-19114000D01*
X27635605Y-19114000D01*
X28409398Y-19887793D01*
X28647753Y-19822878D01*
X28828312Y-19312854D01*
X28799949Y-18772556D01*
X28647753Y-18405122D01*
X28409398Y-18340207D01*
X27635605Y-19114000D01*
X27276395Y-19114000D01*
X26502602Y-18340207D01*
X26264247Y-18405122D01*
X26083688Y-18915146D01*
X26112051Y-19455444D01*
X26207136Y-19685000D01*
X23696565Y-19685000D01*
X23828312Y-19312854D01*
X23799949Y-18772556D01*
X23647753Y-18405122D01*
X23409398Y-18340207D01*
X22635605Y-19114000D01*
X22649748Y-19128143D01*
X22470143Y-19307748D01*
X22456000Y-19293605D01*
X22441858Y-19307748D01*
X22262253Y-19128143D01*
X22276395Y-19114000D01*
X21502602Y-18340207D01*
X21264247Y-18405122D01*
X21083688Y-18915146D01*
X21112051Y-19455444D01*
X21207136Y-19685000D01*
X20363189Y-19685000D01*
X20252799Y-19639162D01*
X19880833Y-19638838D01*
X19537057Y-19780883D01*
X19273808Y-20043673D01*
X19131162Y-20387201D01*
X19130838Y-20759167D01*
X19272883Y-21102943D01*
X19535673Y-21366192D01*
X19647313Y-21412549D01*
X21717000Y-23482236D01*
X21717000Y-25864811D01*
X21671162Y-25975201D01*
X21670838Y-26347167D01*
X21812883Y-26690943D01*
X22075673Y-26954192D01*
X22187313Y-27000549D01*
X22479000Y-27292236D01*
X22479000Y-29420811D01*
X22433162Y-29531201D01*
X22432875Y-29861069D01*
X22028205Y-29860716D01*
X21463000Y-30094255D01*
X21463000Y-27686000D01*
X21395329Y-27345794D01*
X21202618Y-27057382D01*
X18916618Y-24771382D01*
X18628206Y-24578671D01*
X18288000Y-24511000D01*
X17823189Y-24511000D01*
X17712799Y-24465162D01*
X17340833Y-24464838D01*
X16997057Y-24606883D01*
X16733808Y-24869673D01*
X16591162Y-25213201D01*
X16590856Y-25564848D01*
X16578833Y-25564838D01*
X16235057Y-25706883D01*
X15971808Y-25969673D01*
X15829162Y-26313201D01*
X15828838Y-26685167D01*
X15970883Y-27028943D01*
X16233673Y-27292192D01*
X16577201Y-27434838D01*
X16949167Y-27435162D01*
X17060888Y-27389000D01*
X17495764Y-27389000D01*
X18669000Y-28562236D01*
X18669000Y-35560000D01*
X18736671Y-35900206D01*
X18800679Y-35996000D01*
X18929382Y-36188618D01*
X21905051Y-39164287D01*
X21529715Y-39238946D01*
X21047946Y-39560853D01*
X20726039Y-40042622D01*
X20613000Y-40610907D01*
X20613000Y-40669093D01*
X20726039Y-41237378D01*
X20880135Y-41468000D01*
X19691578Y-41468000D01*
X19927995Y-41231995D01*
X20360507Y-40190390D01*
X20361491Y-39062558D01*
X19930798Y-38020199D01*
X19133995Y-37222005D01*
X18092390Y-36789493D01*
X16964558Y-36788509D01*
X15922199Y-37219202D01*
X15710000Y-37431031D01*
X15710000Y-19719627D01*
X15918005Y-19927995D01*
X16959610Y-20360507D01*
X18087442Y-20361491D01*
X19129801Y-19930798D01*
X19927995Y-19133995D01*
X20360507Y-18092390D01*
X20361158Y-17345988D01*
X20363610Y-17353947D01*
X20672526Y-17727080D01*
X21100719Y-17953592D01*
X21138391Y-17957462D01*
X21329000Y-17832731D01*
X21329000Y-16541000D01*
X21583000Y-16541000D01*
X21583000Y-17832731D01*
X21742988Y-17937424D01*
X21682207Y-18160602D01*
X22456000Y-18934395D01*
X23229793Y-18160602D01*
X26682207Y-18160602D01*
X27456000Y-18934395D01*
X28229793Y-18160602D01*
X28169012Y-17937424D01*
X28329000Y-17832731D01*
X28329000Y-16541000D01*
X28583000Y-16541000D01*
X28583000Y-17832731D01*
X28773609Y-17957462D01*
X28811281Y-17953592D01*
X29239474Y-17727080D01*
X29548390Y-17353947D01*
X29691000Y-16891000D01*
X29691000Y-16541000D01*
X28583000Y-16541000D01*
X28329000Y-16541000D01*
X27221000Y-16541000D01*
X27221000Y-16891000D01*
X27363610Y-17353947D01*
X27672526Y-17727080D01*
X27791768Y-17790158D01*
X27654854Y-17741688D01*
X27114556Y-17770051D01*
X26747122Y-17922247D01*
X26682207Y-18160602D01*
X23229793Y-18160602D01*
X23164878Y-17922247D01*
X22654854Y-17741688D01*
X22163055Y-17767505D01*
X22239474Y-17727080D01*
X22548390Y-17353947D01*
X22691000Y-16891000D01*
X22691000Y-16541000D01*
X21583000Y-16541000D01*
X21329000Y-16541000D01*
X20221000Y-16541000D01*
X20221000Y-16624543D01*
X19930798Y-15922199D01*
X19718969Y-15710000D01*
X20290927Y-15710000D01*
X20221000Y-15937000D01*
M02*
