M48
INCH,TZ
T1C0.016
T2C0.024
T3C0.033
T4C0.039
T5C0.043
T6C0.087
%
G90
G05
T1
X6300Y-8100
X6300Y-12600
X6600Y-10433
X6900Y-10000
X7300Y-11600
X7900Y-8100
X8900Y-10300
X9200Y-11700
X9300Y-7000
X9800Y-9000
X10100Y-7100
X10500Y-8100
X10600Y-9700
X11200Y-10900
X11400Y-8900
X12500Y-6400
T3
X8841Y-7525
X10809Y-7525
T4
X8700Y-16000
X9700Y-16000
X10700Y-16000
X12500Y-10100
X12500Y-11100
T5
X8800Y-12400
X8800Y-14172
X11359Y-12400
X11359Y-14172
T6
X6900Y-6900
X6900Y-15600
X12500Y-15600
T2
X8447Y-6600G85X8447Y-6324
G05
X11203Y-6324G85X11203Y-6600
G05
T0
M30
