G04 #@! TF.FileFunction,Copper,L1,Top,Signal*
%FSLAX46Y46*%
G04 Gerber Fmt 4.6, Leading zero omitted, Abs format (unit mm)*
G04 Created by KiCad (PCBNEW 4.0.7) date 04/30/18 22:22:10*
%MOMM*%
%LPD*%
G01*
G04 APERTURE LIST*
%ADD10C,0.100000*%
%ADD11C,4.400000*%
%ADD12R,0.750000X1.200000*%
%ADD13R,0.900000X1.200000*%
%ADD14R,0.650000X1.560000*%
%ADD15R,1.500000X1.900000*%
%ADD16C,1.450000*%
%ADD17R,0.400000X1.350000*%
%ADD18O,1.200000X1.900000*%
%ADD19R,1.200000X1.900000*%
%ADD20R,1.200000X0.900000*%
%ADD21R,2.000000X0.650000*%
%ADD22R,1.700000X1.700000*%
%ADD23O,1.700000X1.700000*%
%ADD24C,2.000000*%
%ADD25R,0.650000X1.060000*%
%ADD26C,0.600000*%
%ADD27C,0.381000*%
%ADD28C,0.508000*%
%ADD29C,0.254000*%
G04 APERTURE END LIST*
D10*
D11*
X17526000Y-17526000D03*
X17526000Y-39624000D03*
X31750000Y-39624000D03*
D12*
X27686000Y-23302000D03*
X27686000Y-21402000D03*
X29464000Y-27620000D03*
X29464000Y-25720000D03*
D13*
X30480000Y-18626000D03*
X30480000Y-16426000D03*
X32766000Y-16426000D03*
X32766000Y-18626000D03*
D14*
X23942000Y-24210000D03*
X24892000Y-24210000D03*
X25842000Y-24210000D03*
X25842000Y-21510000D03*
X23942000Y-21510000D03*
D15*
X23956000Y-16414000D03*
D16*
X27456000Y-19114000D03*
D17*
X25606000Y-19114000D03*
X26256000Y-19114000D03*
X23656000Y-19114000D03*
X24306000Y-19114000D03*
X24956000Y-19114000D03*
D16*
X22456000Y-19114000D03*
D15*
X25956000Y-16414000D03*
D18*
X28456000Y-16414000D03*
X21456000Y-16414000D03*
D19*
X22056000Y-16414000D03*
X27856000Y-16414000D03*
D13*
X30480000Y-22944000D03*
X30480000Y-20744000D03*
X32766000Y-22944000D03*
X32766000Y-20744000D03*
X22098000Y-23706000D03*
X22098000Y-21506000D03*
D20*
X17442000Y-28194000D03*
X19642000Y-28194000D03*
X19642000Y-21336000D03*
X17442000Y-21336000D03*
X19642000Y-22860000D03*
X17442000Y-22860000D03*
D13*
X15748000Y-30564000D03*
X15748000Y-28364000D03*
D21*
X23436000Y-26990000D03*
X23436000Y-27940000D03*
X23436000Y-28890000D03*
X26856000Y-28890000D03*
X26856000Y-27940000D03*
X26856000Y-26990000D03*
D14*
X19492000Y-30908000D03*
X18542000Y-30908000D03*
X17592000Y-30908000D03*
X17592000Y-33608000D03*
X19492000Y-33608000D03*
D22*
X27178000Y-40640000D03*
D23*
X24638000Y-40640000D03*
X22098000Y-40640000D03*
D24*
X22352000Y-35996000D03*
X22352000Y-31496000D03*
X28852000Y-35996000D03*
X28852000Y-31496000D03*
D25*
X19492000Y-24300000D03*
X18542000Y-24300000D03*
X17592000Y-24300000D03*
X17592000Y-26500000D03*
X19492000Y-26500000D03*
X18542000Y-26500000D03*
D22*
X31750000Y-28194000D03*
D23*
X31750000Y-25654000D03*
D26*
X25654000Y-18034000D03*
X23622000Y-17780000D03*
X31750000Y-16256000D03*
X16002000Y-32004000D03*
X28956000Y-22606000D03*
X24892000Y-22860000D03*
X18542000Y-29464000D03*
X16002000Y-20574000D03*
X23368000Y-29718000D03*
X22606000Y-26162000D03*
X20066000Y-20574000D03*
X26670000Y-20574000D03*
X28448000Y-27686000D03*
X26924000Y-24638000D03*
X16764000Y-26500000D03*
X17526000Y-25400000D03*
D27*
X25606000Y-19114000D02*
X25654000Y-19066000D01*
X25654000Y-19066000D02*
X25654000Y-18034000D01*
D28*
X24956000Y-19114000D02*
X25020000Y-19050000D01*
X25020000Y-19050000D02*
X25400000Y-19050000D01*
X24306000Y-19114000D02*
X23656000Y-19114000D01*
X23656000Y-19114000D02*
X23656000Y-17814000D01*
X23656000Y-17814000D02*
X23622000Y-17780000D01*
X32766000Y-16426000D02*
X32596000Y-16256000D01*
X32596000Y-16256000D02*
X31750000Y-16256000D01*
X15748000Y-30564000D02*
X15748000Y-31750000D01*
X15748000Y-31750000D02*
X16002000Y-32004000D01*
X28260000Y-23302000D02*
X28956000Y-22606000D01*
X27686000Y-23302000D02*
X28260000Y-23302000D01*
X24892000Y-24210000D02*
X24892000Y-22860000D01*
X18542000Y-24300000D02*
X18542000Y-23368000D01*
X18542000Y-23368000D02*
X19050000Y-22860000D01*
X19050000Y-22860000D02*
X19642000Y-22860000D01*
X18542000Y-30908000D02*
X18542000Y-29464000D01*
X17442000Y-21336000D02*
X16764000Y-21336000D01*
X16764000Y-21336000D02*
X16002000Y-20574000D01*
X23368000Y-29718000D02*
X23368000Y-28958000D01*
X23368000Y-28958000D02*
X23436000Y-28890000D01*
X22608000Y-26162000D02*
X23436000Y-26990000D01*
X22606000Y-26162000D02*
X22608000Y-26162000D01*
X19642000Y-21336000D02*
X20066000Y-20912000D01*
X20066000Y-20912000D02*
X20066000Y-20574000D01*
X27686000Y-20574000D02*
X27686000Y-21402000D01*
X26670000Y-20574000D02*
X26670000Y-20682000D01*
X26670000Y-20682000D02*
X25842000Y-21510000D01*
X26670000Y-20574000D02*
X27686000Y-20574000D01*
X27686000Y-20574000D02*
X28702000Y-20574000D01*
X29210000Y-17696000D02*
X30480000Y-16426000D01*
X29210000Y-20066000D02*
X29210000Y-17696000D01*
X28702000Y-20574000D02*
X29210000Y-20066000D01*
D27*
X26256000Y-20160000D02*
X26670000Y-20574000D01*
X26256000Y-20160000D02*
X26256000Y-19114000D01*
D28*
X25950000Y-21402000D02*
X25842000Y-21510000D01*
X28448000Y-27686000D02*
X28448000Y-28890000D01*
X28448000Y-28890000D02*
X28448000Y-28702000D01*
X28448000Y-28702000D02*
X28448000Y-28890000D01*
X25842000Y-24210000D02*
X26270000Y-24638000D01*
X28448000Y-27686000D02*
X29398000Y-27686000D01*
X26270000Y-24638000D02*
X26924000Y-24638000D01*
X29398000Y-27686000D02*
X29464000Y-27620000D01*
X29464000Y-28890000D02*
X29464000Y-27620000D01*
X31750000Y-28194000D02*
X31054000Y-28890000D01*
X31054000Y-28890000D02*
X29464000Y-28890000D01*
X29464000Y-28890000D02*
X28448000Y-28890000D01*
X28448000Y-28890000D02*
X26856000Y-28890000D01*
X30480000Y-20744000D02*
X30480000Y-18626000D01*
X32766000Y-20744000D02*
X32766000Y-18626000D01*
X30480000Y-22944000D02*
X29888000Y-22944000D01*
X23942000Y-25466000D02*
X23942000Y-24210000D01*
X24130000Y-25654000D02*
X23942000Y-25466000D01*
X27178000Y-25654000D02*
X24130000Y-25654000D01*
X29888000Y-22944000D02*
X27178000Y-25654000D01*
X30480000Y-22944000D02*
X32766000Y-22944000D01*
X23942000Y-21510000D02*
X22102000Y-21510000D01*
X22102000Y-21510000D02*
X22098000Y-21506000D01*
X19492000Y-33608000D02*
X19492000Y-37018000D01*
X22098000Y-39624000D02*
X22098000Y-40640000D01*
X19492000Y-37018000D02*
X22098000Y-39624000D01*
X17442000Y-28194000D02*
X17442000Y-30758000D01*
X17442000Y-30758000D02*
X17592000Y-30908000D01*
X17592000Y-26500000D02*
X16764000Y-26500000D01*
X16764000Y-26500000D02*
X16680000Y-26500000D01*
X15748000Y-27432000D02*
X15748000Y-28364000D01*
X16680000Y-26500000D02*
X16256000Y-26924000D01*
X16256000Y-26924000D02*
X16129000Y-27051000D01*
X16129000Y-27051000D02*
X15748000Y-27432000D01*
X19642000Y-28194000D02*
X19642000Y-30758000D01*
X19642000Y-30758000D02*
X19492000Y-30908000D01*
X19642000Y-28194000D02*
X19304000Y-28194000D01*
X19304000Y-28194000D02*
X18542000Y-27432000D01*
X18542000Y-27432000D02*
X18542000Y-26500000D01*
X17592000Y-25334000D02*
X17526000Y-25400000D01*
X17592000Y-25334000D02*
X17592000Y-24300000D01*
X17442000Y-22860000D02*
X17442000Y-24150000D01*
X17442000Y-24150000D02*
X17592000Y-24300000D01*
X19492000Y-24300000D02*
X19492000Y-26500000D01*
X21590000Y-27940000D02*
X21590000Y-30734000D01*
X21590000Y-30734000D02*
X22352000Y-31496000D01*
X23436000Y-27940000D02*
X21590000Y-27940000D01*
X20150000Y-26500000D02*
X19492000Y-26500000D01*
X21590000Y-27940000D02*
X20150000Y-26500000D01*
X26856000Y-26990000D02*
X25588000Y-26990000D01*
X25146000Y-27432000D02*
X25146000Y-27940000D01*
X25588000Y-26990000D02*
X25146000Y-27432000D01*
X23436000Y-27940000D02*
X25146000Y-27940000D01*
D29*
G36*
X31851910Y-23995441D02*
X32064110Y-24140431D01*
X32316000Y-24191440D01*
X33216000Y-24191440D01*
X33451317Y-24147162D01*
X33594000Y-24055348D01*
X33594000Y-37458422D01*
X33357995Y-37222005D01*
X32316390Y-36789493D01*
X31188558Y-36788509D01*
X30146199Y-37219202D01*
X29348005Y-38016005D01*
X28915493Y-39057610D01*
X28914509Y-40185442D01*
X29345202Y-41227801D01*
X29584982Y-41468000D01*
X28663000Y-41468000D01*
X28663000Y-40925750D01*
X28504250Y-40767000D01*
X27305000Y-40767000D01*
X27305000Y-40787000D01*
X27051000Y-40787000D01*
X27051000Y-40767000D01*
X27031000Y-40767000D01*
X27031000Y-40513000D01*
X27051000Y-40513000D01*
X27051000Y-39313750D01*
X27305000Y-39313750D01*
X27305000Y-40513000D01*
X28504250Y-40513000D01*
X28663000Y-40354250D01*
X28663000Y-39663691D01*
X28566327Y-39430302D01*
X28387699Y-39251673D01*
X28154310Y-39155000D01*
X27463750Y-39155000D01*
X27305000Y-39313750D01*
X27051000Y-39313750D01*
X26892250Y-39155000D01*
X26201690Y-39155000D01*
X25968301Y-39251673D01*
X25789673Y-39430302D01*
X25717403Y-39604777D01*
X25688054Y-39560853D01*
X25206285Y-39238946D01*
X24638000Y-39125907D01*
X24069715Y-39238946D01*
X23587946Y-39560853D01*
X23368000Y-39890026D01*
X23148054Y-39560853D01*
X22947828Y-39427067D01*
X22919330Y-39283795D01*
X22726618Y-38995382D01*
X20381000Y-36649764D01*
X20381000Y-36319795D01*
X20716716Y-36319795D01*
X20965106Y-36920943D01*
X21424637Y-37381278D01*
X22025352Y-37630716D01*
X22675795Y-37631284D01*
X23276943Y-37382894D01*
X23737278Y-36923363D01*
X23986716Y-36322648D01*
X23986718Y-36319795D01*
X27216716Y-36319795D01*
X27465106Y-36920943D01*
X27924637Y-37381278D01*
X28525352Y-37630716D01*
X29175795Y-37631284D01*
X29776943Y-37382894D01*
X30237278Y-36923363D01*
X30486716Y-36322648D01*
X30487284Y-35672205D01*
X30238894Y-35071057D01*
X29779363Y-34610722D01*
X29178648Y-34361284D01*
X28528205Y-34360716D01*
X27927057Y-34609106D01*
X27466722Y-35068637D01*
X27217284Y-35669352D01*
X27216716Y-36319795D01*
X23986718Y-36319795D01*
X23987284Y-35672205D01*
X23738894Y-35071057D01*
X23279363Y-34610722D01*
X22678648Y-34361284D01*
X22028205Y-34360716D01*
X21427057Y-34609106D01*
X20966722Y-35068637D01*
X20717284Y-35669352D01*
X20716716Y-36319795D01*
X20381000Y-36319795D01*
X20381000Y-34687354D01*
X20413431Y-34639890D01*
X20464440Y-34388000D01*
X20464440Y-32828000D01*
X20420162Y-32592683D01*
X20281090Y-32376559D01*
X20105768Y-32256767D01*
X20268441Y-32152090D01*
X20413431Y-31939890D01*
X20464440Y-31688000D01*
X20464440Y-31092621D01*
X20531000Y-30758000D01*
X20531000Y-29212618D01*
X20693441Y-29108090D01*
X20701000Y-29097027D01*
X20701000Y-30734000D01*
X20764824Y-31054864D01*
X20717284Y-31169352D01*
X20716716Y-31819795D01*
X20965106Y-32420943D01*
X21424637Y-32881278D01*
X22025352Y-33130716D01*
X22675795Y-33131284D01*
X23276943Y-32882894D01*
X23737278Y-32423363D01*
X23986716Y-31822648D01*
X23986718Y-31819795D01*
X27216716Y-31819795D01*
X27465106Y-32420943D01*
X27924637Y-32881278D01*
X28525352Y-33130716D01*
X29175795Y-33131284D01*
X29776943Y-32882894D01*
X30237278Y-32423363D01*
X30486716Y-31822648D01*
X30487284Y-31172205D01*
X30238894Y-30571057D01*
X29779363Y-30110722D01*
X29178648Y-29861284D01*
X28528205Y-29860716D01*
X27927057Y-30109106D01*
X27466722Y-30568637D01*
X27217284Y-31169352D01*
X27216716Y-31819795D01*
X23986718Y-31819795D01*
X23987284Y-31172205D01*
X23740787Y-30575639D01*
X23896943Y-30511117D01*
X24160192Y-30248327D01*
X24302838Y-29904799D01*
X24302875Y-29862440D01*
X24436000Y-29862440D01*
X24671317Y-29818162D01*
X24887441Y-29679090D01*
X25032431Y-29466890D01*
X25083440Y-29215000D01*
X25083440Y-28829000D01*
X25146000Y-28829000D01*
X25208560Y-28816556D01*
X25208560Y-29215000D01*
X25252838Y-29450317D01*
X25391910Y-29666441D01*
X25604110Y-29811431D01*
X25856000Y-29862440D01*
X27856000Y-29862440D01*
X28091317Y-29818162D01*
X28152176Y-29779000D01*
X31054000Y-29779000D01*
X31394206Y-29711329D01*
X31423972Y-29691440D01*
X32600000Y-29691440D01*
X32835317Y-29647162D01*
X33051441Y-29508090D01*
X33196431Y-29295890D01*
X33247440Y-29044000D01*
X33247440Y-27344000D01*
X33203162Y-27108683D01*
X33064090Y-26892559D01*
X32851890Y-26747569D01*
X32743893Y-26725699D01*
X33021645Y-26420924D01*
X33191476Y-26010890D01*
X33070155Y-25781000D01*
X31877000Y-25781000D01*
X31877000Y-25801000D01*
X31623000Y-25801000D01*
X31623000Y-25781000D01*
X30429845Y-25781000D01*
X30367461Y-25899211D01*
X30315250Y-25847000D01*
X29591000Y-25847000D01*
X29591000Y-25867000D01*
X29337000Y-25867000D01*
X29337000Y-25847000D01*
X28612750Y-25847000D01*
X28454000Y-26005750D01*
X28454000Y-26421661D01*
X28320090Y-26213559D01*
X28107890Y-26068569D01*
X28035356Y-26053880D01*
X28554493Y-25534743D01*
X28612750Y-25593000D01*
X29337000Y-25593000D01*
X29337000Y-25573000D01*
X29591000Y-25573000D01*
X29591000Y-25593000D01*
X30315250Y-25593000D01*
X30413059Y-25495191D01*
X30429845Y-25527000D01*
X31623000Y-25527000D01*
X31623000Y-24333181D01*
X31877000Y-24333181D01*
X31877000Y-25527000D01*
X33070155Y-25527000D01*
X33191476Y-25297110D01*
X33021645Y-24887076D01*
X32631358Y-24458817D01*
X32106892Y-24212514D01*
X31877000Y-24333181D01*
X31623000Y-24333181D01*
X31393108Y-24212514D01*
X30868642Y-24458817D01*
X30478355Y-24887076D01*
X30454098Y-24945642D01*
X30377327Y-24760302D01*
X30198699Y-24581673D01*
X29965310Y-24485000D01*
X29749750Y-24485000D01*
X29591002Y-24643748D01*
X29591002Y-24498234D01*
X29920060Y-24169176D01*
X30030000Y-24191440D01*
X30930000Y-24191440D01*
X31165317Y-24147162D01*
X31381441Y-24008090D01*
X31501075Y-23833000D01*
X31747382Y-23833000D01*
X31851910Y-23995441D01*
X31851910Y-23995441D01*
G37*
X31851910Y-23995441D02*
X32064110Y-24140431D01*
X32316000Y-24191440D01*
X33216000Y-24191440D01*
X33451317Y-24147162D01*
X33594000Y-24055348D01*
X33594000Y-37458422D01*
X33357995Y-37222005D01*
X32316390Y-36789493D01*
X31188558Y-36788509D01*
X30146199Y-37219202D01*
X29348005Y-38016005D01*
X28915493Y-39057610D01*
X28914509Y-40185442D01*
X29345202Y-41227801D01*
X29584982Y-41468000D01*
X28663000Y-41468000D01*
X28663000Y-40925750D01*
X28504250Y-40767000D01*
X27305000Y-40767000D01*
X27305000Y-40787000D01*
X27051000Y-40787000D01*
X27051000Y-40767000D01*
X27031000Y-40767000D01*
X27031000Y-40513000D01*
X27051000Y-40513000D01*
X27051000Y-39313750D01*
X27305000Y-39313750D01*
X27305000Y-40513000D01*
X28504250Y-40513000D01*
X28663000Y-40354250D01*
X28663000Y-39663691D01*
X28566327Y-39430302D01*
X28387699Y-39251673D01*
X28154310Y-39155000D01*
X27463750Y-39155000D01*
X27305000Y-39313750D01*
X27051000Y-39313750D01*
X26892250Y-39155000D01*
X26201690Y-39155000D01*
X25968301Y-39251673D01*
X25789673Y-39430302D01*
X25717403Y-39604777D01*
X25688054Y-39560853D01*
X25206285Y-39238946D01*
X24638000Y-39125907D01*
X24069715Y-39238946D01*
X23587946Y-39560853D01*
X23368000Y-39890026D01*
X23148054Y-39560853D01*
X22947828Y-39427067D01*
X22919330Y-39283795D01*
X22726618Y-38995382D01*
X20381000Y-36649764D01*
X20381000Y-36319795D01*
X20716716Y-36319795D01*
X20965106Y-36920943D01*
X21424637Y-37381278D01*
X22025352Y-37630716D01*
X22675795Y-37631284D01*
X23276943Y-37382894D01*
X23737278Y-36923363D01*
X23986716Y-36322648D01*
X23986718Y-36319795D01*
X27216716Y-36319795D01*
X27465106Y-36920943D01*
X27924637Y-37381278D01*
X28525352Y-37630716D01*
X29175795Y-37631284D01*
X29776943Y-37382894D01*
X30237278Y-36923363D01*
X30486716Y-36322648D01*
X30487284Y-35672205D01*
X30238894Y-35071057D01*
X29779363Y-34610722D01*
X29178648Y-34361284D01*
X28528205Y-34360716D01*
X27927057Y-34609106D01*
X27466722Y-35068637D01*
X27217284Y-35669352D01*
X27216716Y-36319795D01*
X23986718Y-36319795D01*
X23987284Y-35672205D01*
X23738894Y-35071057D01*
X23279363Y-34610722D01*
X22678648Y-34361284D01*
X22028205Y-34360716D01*
X21427057Y-34609106D01*
X20966722Y-35068637D01*
X20717284Y-35669352D01*
X20716716Y-36319795D01*
X20381000Y-36319795D01*
X20381000Y-34687354D01*
X20413431Y-34639890D01*
X20464440Y-34388000D01*
X20464440Y-32828000D01*
X20420162Y-32592683D01*
X20281090Y-32376559D01*
X20105768Y-32256767D01*
X20268441Y-32152090D01*
X20413431Y-31939890D01*
X20464440Y-31688000D01*
X20464440Y-31092621D01*
X20531000Y-30758000D01*
X20531000Y-29212618D01*
X20693441Y-29108090D01*
X20701000Y-29097027D01*
X20701000Y-30734000D01*
X20764824Y-31054864D01*
X20717284Y-31169352D01*
X20716716Y-31819795D01*
X20965106Y-32420943D01*
X21424637Y-32881278D01*
X22025352Y-33130716D01*
X22675795Y-33131284D01*
X23276943Y-32882894D01*
X23737278Y-32423363D01*
X23986716Y-31822648D01*
X23986718Y-31819795D01*
X27216716Y-31819795D01*
X27465106Y-32420943D01*
X27924637Y-32881278D01*
X28525352Y-33130716D01*
X29175795Y-33131284D01*
X29776943Y-32882894D01*
X30237278Y-32423363D01*
X30486716Y-31822648D01*
X30487284Y-31172205D01*
X30238894Y-30571057D01*
X29779363Y-30110722D01*
X29178648Y-29861284D01*
X28528205Y-29860716D01*
X27927057Y-30109106D01*
X27466722Y-30568637D01*
X27217284Y-31169352D01*
X27216716Y-31819795D01*
X23986718Y-31819795D01*
X23987284Y-31172205D01*
X23740787Y-30575639D01*
X23896943Y-30511117D01*
X24160192Y-30248327D01*
X24302838Y-29904799D01*
X24302875Y-29862440D01*
X24436000Y-29862440D01*
X24671317Y-29818162D01*
X24887441Y-29679090D01*
X25032431Y-29466890D01*
X25083440Y-29215000D01*
X25083440Y-28829000D01*
X25146000Y-28829000D01*
X25208560Y-28816556D01*
X25208560Y-29215000D01*
X25252838Y-29450317D01*
X25391910Y-29666441D01*
X25604110Y-29811431D01*
X25856000Y-29862440D01*
X27856000Y-29862440D01*
X28091317Y-29818162D01*
X28152176Y-29779000D01*
X31054000Y-29779000D01*
X31394206Y-29711329D01*
X31423972Y-29691440D01*
X32600000Y-29691440D01*
X32835317Y-29647162D01*
X33051441Y-29508090D01*
X33196431Y-29295890D01*
X33247440Y-29044000D01*
X33247440Y-27344000D01*
X33203162Y-27108683D01*
X33064090Y-26892559D01*
X32851890Y-26747569D01*
X32743893Y-26725699D01*
X33021645Y-26420924D01*
X33191476Y-26010890D01*
X33070155Y-25781000D01*
X31877000Y-25781000D01*
X31877000Y-25801000D01*
X31623000Y-25801000D01*
X31623000Y-25781000D01*
X30429845Y-25781000D01*
X30367461Y-25899211D01*
X30315250Y-25847000D01*
X29591000Y-25847000D01*
X29591000Y-25867000D01*
X29337000Y-25867000D01*
X29337000Y-25847000D01*
X28612750Y-25847000D01*
X28454000Y-26005750D01*
X28454000Y-26421661D01*
X28320090Y-26213559D01*
X28107890Y-26068569D01*
X28035356Y-26053880D01*
X28554493Y-25534743D01*
X28612750Y-25593000D01*
X29337000Y-25593000D01*
X29337000Y-25573000D01*
X29591000Y-25573000D01*
X29591000Y-25593000D01*
X30315250Y-25593000D01*
X30413059Y-25495191D01*
X30429845Y-25527000D01*
X31623000Y-25527000D01*
X31623000Y-24333181D01*
X31877000Y-24333181D01*
X31877000Y-25527000D01*
X33070155Y-25527000D01*
X33191476Y-25297110D01*
X33021645Y-24887076D01*
X32631358Y-24458817D01*
X32106892Y-24212514D01*
X31877000Y-24333181D01*
X31623000Y-24333181D01*
X31393108Y-24212514D01*
X30868642Y-24458817D01*
X30478355Y-24887076D01*
X30454098Y-24945642D01*
X30377327Y-24760302D01*
X30198699Y-24581673D01*
X29965310Y-24485000D01*
X29749750Y-24485000D01*
X29591002Y-24643748D01*
X29591002Y-24498234D01*
X29920060Y-24169176D01*
X30030000Y-24191440D01*
X30930000Y-24191440D01*
X31165317Y-24147162D01*
X31381441Y-24008090D01*
X31501075Y-23833000D01*
X31747382Y-23833000D01*
X31851910Y-23995441D01*
G36*
X15875000Y-30437000D02*
X15895000Y-30437000D01*
X15895000Y-30691000D01*
X15875000Y-30691000D01*
X15875000Y-31640250D01*
X16033750Y-31799000D01*
X16324310Y-31799000D01*
X16557699Y-31702327D01*
X16619560Y-31640466D01*
X16619560Y-31688000D01*
X16663838Y-31923317D01*
X16802910Y-32139441D01*
X16978232Y-32259233D01*
X16815559Y-32363910D01*
X16670569Y-32576110D01*
X16619560Y-32828000D01*
X16619560Y-34388000D01*
X16663838Y-34623317D01*
X16802910Y-34839441D01*
X17015110Y-34984431D01*
X17267000Y-35035440D01*
X17917000Y-35035440D01*
X18152317Y-34991162D01*
X18368441Y-34852090D01*
X18513431Y-34639890D01*
X18541176Y-34502880D01*
X18563838Y-34623317D01*
X18603000Y-34684176D01*
X18603000Y-37001517D01*
X18092390Y-36789493D01*
X16964558Y-36788509D01*
X15922199Y-37219202D01*
X15710000Y-37431031D01*
X15710000Y-30417000D01*
X15875000Y-30417000D01*
X15875000Y-30437000D01*
X15875000Y-30437000D01*
G37*
X15875000Y-30437000D02*
X15895000Y-30437000D01*
X15895000Y-30691000D01*
X15875000Y-30691000D01*
X15875000Y-31640250D01*
X16033750Y-31799000D01*
X16324310Y-31799000D01*
X16557699Y-31702327D01*
X16619560Y-31640466D01*
X16619560Y-31688000D01*
X16663838Y-31923317D01*
X16802910Y-32139441D01*
X16978232Y-32259233D01*
X16815559Y-32363910D01*
X16670569Y-32576110D01*
X16619560Y-32828000D01*
X16619560Y-34388000D01*
X16663838Y-34623317D01*
X16802910Y-34839441D01*
X17015110Y-34984431D01*
X17267000Y-35035440D01*
X17917000Y-35035440D01*
X18152317Y-34991162D01*
X18368441Y-34852090D01*
X18513431Y-34639890D01*
X18541176Y-34502880D01*
X18563838Y-34623317D01*
X18603000Y-34684176D01*
X18603000Y-37001517D01*
X18092390Y-36789493D01*
X16964558Y-36788509D01*
X15922199Y-37219202D01*
X15710000Y-37431031D01*
X15710000Y-30417000D01*
X15875000Y-30417000D01*
X15875000Y-30437000D01*
G36*
X18577910Y-29095441D02*
X18753000Y-29215075D01*
X18753000Y-29567750D01*
X18669000Y-29651750D01*
X18669000Y-29732051D01*
X18570569Y-29876110D01*
X18542824Y-30013120D01*
X18520162Y-29892683D01*
X18415000Y-29729257D01*
X18415000Y-29651750D01*
X18331000Y-29567750D01*
X18331000Y-29212618D01*
X18493441Y-29108090D01*
X18541134Y-29038289D01*
X18577910Y-29095441D01*
X18577910Y-29095441D01*
G37*
X18577910Y-29095441D02*
X18753000Y-29215075D01*
X18753000Y-29567750D01*
X18669000Y-29651750D01*
X18669000Y-29732051D01*
X18570569Y-29876110D01*
X18542824Y-30013120D01*
X18520162Y-29892683D01*
X18415000Y-29729257D01*
X18415000Y-29651750D01*
X18331000Y-29567750D01*
X18331000Y-29212618D01*
X18493441Y-29108090D01*
X18541134Y-29038289D01*
X18577910Y-29095441D01*
G36*
X20363610Y-17353947D02*
X20672526Y-17727080D01*
X21100719Y-17953592D01*
X21138391Y-17957462D01*
X21173672Y-17934375D01*
X21329691Y-17999000D01*
X21726219Y-17999000D01*
X21682207Y-18160602D01*
X22456000Y-18934395D01*
X22470143Y-18920253D01*
X22649748Y-19099858D01*
X22635605Y-19114000D01*
X22649748Y-19128143D01*
X22470143Y-19307748D01*
X22456000Y-19293605D01*
X21682207Y-20067398D01*
X21734269Y-20258560D01*
X21648000Y-20258560D01*
X21412683Y-20302838D01*
X21196559Y-20441910D01*
X21051569Y-20654110D01*
X21000560Y-20906000D01*
X21000560Y-22106000D01*
X21044838Y-22341317D01*
X21183910Y-22557441D01*
X21252006Y-22603969D01*
X21109673Y-22746302D01*
X21013000Y-22979691D01*
X21013000Y-23420250D01*
X21171750Y-23579000D01*
X21971000Y-23579000D01*
X21971000Y-23559000D01*
X22225000Y-23559000D01*
X22225000Y-23579000D01*
X22245000Y-23579000D01*
X22245000Y-23833000D01*
X22225000Y-23833000D01*
X22225000Y-24782250D01*
X22383750Y-24941000D01*
X22674310Y-24941000D01*
X22907699Y-24844327D01*
X22969560Y-24782466D01*
X22969560Y-24990000D01*
X23013838Y-25225317D01*
X23053000Y-25286176D01*
X23053000Y-25335207D01*
X22792799Y-25227162D01*
X22420833Y-25226838D01*
X22077057Y-25368883D01*
X21813808Y-25631673D01*
X21671162Y-25975201D01*
X21670838Y-26347167D01*
X21793034Y-26642905D01*
X21788560Y-26665000D01*
X21788560Y-26881324D01*
X20778618Y-25871382D01*
X20681074Y-25806205D01*
X20490206Y-25678671D01*
X20381000Y-25656949D01*
X20381000Y-25129354D01*
X20413431Y-25081890D01*
X20464440Y-24830000D01*
X20464440Y-23991750D01*
X21013000Y-23991750D01*
X21013000Y-24432309D01*
X21109673Y-24665698D01*
X21288301Y-24844327D01*
X21521690Y-24941000D01*
X21812250Y-24941000D01*
X21971000Y-24782250D01*
X21971000Y-23833000D01*
X21171750Y-23833000D01*
X21013000Y-23991750D01*
X20464440Y-23991750D01*
X20464440Y-23905181D01*
X20601698Y-23848327D01*
X20780327Y-23669699D01*
X20877000Y-23436310D01*
X20877000Y-23145750D01*
X20718250Y-22987000D01*
X19769000Y-22987000D01*
X19769000Y-23007000D01*
X19515000Y-23007000D01*
X19515000Y-22987000D01*
X19495000Y-22987000D01*
X19495000Y-22733000D01*
X19515000Y-22733000D01*
X19515000Y-22713000D01*
X19769000Y-22713000D01*
X19769000Y-22733000D01*
X20718250Y-22733000D01*
X20877000Y-22574250D01*
X20877000Y-22283690D01*
X20799056Y-22095517D01*
X20838431Y-22037890D01*
X20889440Y-21786000D01*
X20889440Y-21241597D01*
X20955000Y-20912000D01*
X20955000Y-20871189D01*
X21000838Y-20760799D01*
X21001162Y-20388833D01*
X20859117Y-20045057D01*
X20596327Y-19781808D01*
X20252799Y-19639162D01*
X19880833Y-19638838D01*
X19537057Y-19780883D01*
X19273808Y-20043673D01*
X19192883Y-20238560D01*
X19042000Y-20238560D01*
X18806683Y-20282838D01*
X18590559Y-20421910D01*
X18544031Y-20490006D01*
X18401698Y-20347673D01*
X18261465Y-20289586D01*
X19129801Y-19930798D01*
X19927995Y-19133995D01*
X20018869Y-18915146D01*
X21083688Y-18915146D01*
X21112051Y-19455444D01*
X21264247Y-19822878D01*
X21502602Y-19887793D01*
X22276395Y-19114000D01*
X21502602Y-18340207D01*
X21264247Y-18405122D01*
X21083688Y-18915146D01*
X20018869Y-18915146D01*
X20360507Y-18092390D01*
X20361158Y-17345988D01*
X20363610Y-17353947D01*
X20363610Y-17353947D01*
G37*
X20363610Y-17353947D02*
X20672526Y-17727080D01*
X21100719Y-17953592D01*
X21138391Y-17957462D01*
X21173672Y-17934375D01*
X21329691Y-17999000D01*
X21726219Y-17999000D01*
X21682207Y-18160602D01*
X22456000Y-18934395D01*
X22470143Y-18920253D01*
X22649748Y-19099858D01*
X22635605Y-19114000D01*
X22649748Y-19128143D01*
X22470143Y-19307748D01*
X22456000Y-19293605D01*
X21682207Y-20067398D01*
X21734269Y-20258560D01*
X21648000Y-20258560D01*
X21412683Y-20302838D01*
X21196559Y-20441910D01*
X21051569Y-20654110D01*
X21000560Y-20906000D01*
X21000560Y-22106000D01*
X21044838Y-22341317D01*
X21183910Y-22557441D01*
X21252006Y-22603969D01*
X21109673Y-22746302D01*
X21013000Y-22979691D01*
X21013000Y-23420250D01*
X21171750Y-23579000D01*
X21971000Y-23579000D01*
X21971000Y-23559000D01*
X22225000Y-23559000D01*
X22225000Y-23579000D01*
X22245000Y-23579000D01*
X22245000Y-23833000D01*
X22225000Y-23833000D01*
X22225000Y-24782250D01*
X22383750Y-24941000D01*
X22674310Y-24941000D01*
X22907699Y-24844327D01*
X22969560Y-24782466D01*
X22969560Y-24990000D01*
X23013838Y-25225317D01*
X23053000Y-25286176D01*
X23053000Y-25335207D01*
X22792799Y-25227162D01*
X22420833Y-25226838D01*
X22077057Y-25368883D01*
X21813808Y-25631673D01*
X21671162Y-25975201D01*
X21670838Y-26347167D01*
X21793034Y-26642905D01*
X21788560Y-26665000D01*
X21788560Y-26881324D01*
X20778618Y-25871382D01*
X20681074Y-25806205D01*
X20490206Y-25678671D01*
X20381000Y-25656949D01*
X20381000Y-25129354D01*
X20413431Y-25081890D01*
X20464440Y-24830000D01*
X20464440Y-23991750D01*
X21013000Y-23991750D01*
X21013000Y-24432309D01*
X21109673Y-24665698D01*
X21288301Y-24844327D01*
X21521690Y-24941000D01*
X21812250Y-24941000D01*
X21971000Y-24782250D01*
X21971000Y-23833000D01*
X21171750Y-23833000D01*
X21013000Y-23991750D01*
X20464440Y-23991750D01*
X20464440Y-23905181D01*
X20601698Y-23848327D01*
X20780327Y-23669699D01*
X20877000Y-23436310D01*
X20877000Y-23145750D01*
X20718250Y-22987000D01*
X19769000Y-22987000D01*
X19769000Y-23007000D01*
X19515000Y-23007000D01*
X19515000Y-22987000D01*
X19495000Y-22987000D01*
X19495000Y-22733000D01*
X19515000Y-22733000D01*
X19515000Y-22713000D01*
X19769000Y-22713000D01*
X19769000Y-22733000D01*
X20718250Y-22733000D01*
X20877000Y-22574250D01*
X20877000Y-22283690D01*
X20799056Y-22095517D01*
X20838431Y-22037890D01*
X20889440Y-21786000D01*
X20889440Y-21241597D01*
X20955000Y-20912000D01*
X20955000Y-20871189D01*
X21000838Y-20760799D01*
X21001162Y-20388833D01*
X20859117Y-20045057D01*
X20596327Y-19781808D01*
X20252799Y-19639162D01*
X19880833Y-19638838D01*
X19537057Y-19780883D01*
X19273808Y-20043673D01*
X19192883Y-20238560D01*
X19042000Y-20238560D01*
X18806683Y-20282838D01*
X18590559Y-20421910D01*
X18544031Y-20490006D01*
X18401698Y-20347673D01*
X18261465Y-20289586D01*
X19129801Y-19930798D01*
X19927995Y-19133995D01*
X20018869Y-18915146D01*
X21083688Y-18915146D01*
X21112051Y-19455444D01*
X21264247Y-19822878D01*
X21502602Y-19887793D01*
X22276395Y-19114000D01*
X21502602Y-18340207D01*
X21264247Y-18405122D01*
X21083688Y-18915146D01*
X20018869Y-18915146D01*
X20360507Y-18092390D01*
X20361158Y-17345988D01*
X20363610Y-17353947D01*
G36*
X15918005Y-19927995D02*
X16705777Y-20255106D01*
X16482302Y-20347673D01*
X16303673Y-20526301D01*
X16207000Y-20759690D01*
X16207000Y-21050250D01*
X16365750Y-21209000D01*
X17315000Y-21209000D01*
X17315000Y-21189000D01*
X17569000Y-21189000D01*
X17569000Y-21209000D01*
X17589000Y-21209000D01*
X17589000Y-21463000D01*
X17569000Y-21463000D01*
X17569000Y-21483000D01*
X17315000Y-21483000D01*
X17315000Y-21463000D01*
X16365750Y-21463000D01*
X16207000Y-21621750D01*
X16207000Y-21912310D01*
X16284944Y-22100483D01*
X16245569Y-22158110D01*
X16194560Y-22410000D01*
X16194560Y-23310000D01*
X16238838Y-23545317D01*
X16377910Y-23761441D01*
X16553000Y-23881075D01*
X16553000Y-24150000D01*
X16619560Y-24484621D01*
X16619560Y-24830000D01*
X16660324Y-25046641D01*
X16591162Y-25213201D01*
X16590856Y-25564848D01*
X16578833Y-25564838D01*
X16235057Y-25706883D01*
X16108508Y-25833212D01*
X16051382Y-25871382D01*
X15710000Y-26212764D01*
X15710000Y-19719627D01*
X15918005Y-19927995D01*
X15918005Y-19927995D01*
G37*
X15918005Y-19927995D02*
X16705777Y-20255106D01*
X16482302Y-20347673D01*
X16303673Y-20526301D01*
X16207000Y-20759690D01*
X16207000Y-21050250D01*
X16365750Y-21209000D01*
X17315000Y-21209000D01*
X17315000Y-21189000D01*
X17569000Y-21189000D01*
X17569000Y-21209000D01*
X17589000Y-21209000D01*
X17589000Y-21463000D01*
X17569000Y-21463000D01*
X17569000Y-21483000D01*
X17315000Y-21483000D01*
X17315000Y-21463000D01*
X16365750Y-21463000D01*
X16207000Y-21621750D01*
X16207000Y-21912310D01*
X16284944Y-22100483D01*
X16245569Y-22158110D01*
X16194560Y-22410000D01*
X16194560Y-23310000D01*
X16238838Y-23545317D01*
X16377910Y-23761441D01*
X16553000Y-23881075D01*
X16553000Y-24150000D01*
X16619560Y-24484621D01*
X16619560Y-24830000D01*
X16660324Y-25046641D01*
X16591162Y-25213201D01*
X16590856Y-25564848D01*
X16578833Y-25564838D01*
X16235057Y-25706883D01*
X16108508Y-25833212D01*
X16051382Y-25871382D01*
X15710000Y-26212764D01*
X15710000Y-19719627D01*
X15918005Y-19927995D01*
G36*
X27813000Y-23175000D02*
X27833000Y-23175000D01*
X27833000Y-23429000D01*
X27813000Y-23429000D01*
X27813000Y-23449000D01*
X27559000Y-23449000D01*
X27559000Y-23429000D01*
X27539000Y-23429000D01*
X27539000Y-23175000D01*
X27559000Y-23175000D01*
X27559000Y-23155000D01*
X27813000Y-23155000D01*
X27813000Y-23175000D01*
X27813000Y-23175000D01*
G37*
X27813000Y-23175000D02*
X27833000Y-23175000D01*
X27833000Y-23429000D01*
X27813000Y-23429000D01*
X27813000Y-23449000D01*
X27559000Y-23449000D01*
X27559000Y-23429000D01*
X27539000Y-23429000D01*
X27539000Y-23175000D01*
X27559000Y-23175000D01*
X27559000Y-23155000D01*
X27813000Y-23155000D01*
X27813000Y-23175000D01*
G36*
X24913838Y-22525317D02*
X25052910Y-22741441D01*
X25158894Y-22813856D01*
X25019000Y-22953750D01*
X25019000Y-23034051D01*
X24920569Y-23178110D01*
X24892824Y-23315120D01*
X24870162Y-23194683D01*
X24765000Y-23031257D01*
X24765000Y-22953750D01*
X24625285Y-22814035D01*
X24718441Y-22754090D01*
X24863431Y-22541890D01*
X24891176Y-22404880D01*
X24913838Y-22525317D01*
X24913838Y-22525317D01*
G37*
X24913838Y-22525317D02*
X25052910Y-22741441D01*
X25158894Y-22813856D01*
X25019000Y-22953750D01*
X25019000Y-23034051D01*
X24920569Y-23178110D01*
X24892824Y-23315120D01*
X24870162Y-23194683D01*
X24765000Y-23031257D01*
X24765000Y-22953750D01*
X24625285Y-22814035D01*
X24718441Y-22754090D01*
X24863431Y-22541890D01*
X24891176Y-22404880D01*
X24913838Y-22525317D01*
G36*
X29382560Y-21344000D02*
X29426838Y-21579317D01*
X29565910Y-21795441D01*
X29635711Y-21843134D01*
X29578559Y-21879910D01*
X29433569Y-22092110D01*
X29408537Y-22215719D01*
X29297369Y-22290000D01*
X29259382Y-22315382D01*
X28696000Y-22878764D01*
X28696000Y-22575691D01*
X28599327Y-22342302D01*
X28597957Y-22340932D01*
X28657431Y-22253890D01*
X28708440Y-22002000D01*
X28708440Y-21461719D01*
X29042206Y-21395329D01*
X29330618Y-21202618D01*
X29382560Y-21150676D01*
X29382560Y-21344000D01*
X29382560Y-21344000D01*
G37*
X29382560Y-21344000D02*
X29426838Y-21579317D01*
X29565910Y-21795441D01*
X29635711Y-21843134D01*
X29578559Y-21879910D01*
X29433569Y-22092110D01*
X29408537Y-22215719D01*
X29297369Y-22290000D01*
X29259382Y-22315382D01*
X28696000Y-22878764D01*
X28696000Y-22575691D01*
X28599327Y-22342302D01*
X28597957Y-22340932D01*
X28657431Y-22253890D01*
X28708440Y-22002000D01*
X28708440Y-21461719D01*
X29042206Y-21395329D01*
X29330618Y-21202618D01*
X29382560Y-21150676D01*
X29382560Y-21344000D01*
G36*
X31681000Y-16140250D02*
X31839750Y-16299000D01*
X32639000Y-16299000D01*
X32639000Y-16279000D01*
X32893000Y-16279000D01*
X32893000Y-16299000D01*
X32913000Y-16299000D01*
X32913000Y-16553000D01*
X32893000Y-16553000D01*
X32893000Y-16573000D01*
X32639000Y-16573000D01*
X32639000Y-16553000D01*
X31839750Y-16553000D01*
X31681000Y-16711750D01*
X31681000Y-17152309D01*
X31777673Y-17385698D01*
X31918910Y-17526936D01*
X31864559Y-17561910D01*
X31719569Y-17774110D01*
X31668560Y-18026000D01*
X31668560Y-19226000D01*
X31712838Y-19461317D01*
X31851910Y-19677441D01*
X31861683Y-19684119D01*
X31719569Y-19892110D01*
X31668560Y-20144000D01*
X31668560Y-21344000D01*
X31712838Y-21579317D01*
X31851910Y-21795441D01*
X31921711Y-21843134D01*
X31864559Y-21879910D01*
X31744925Y-22055000D01*
X31498618Y-22055000D01*
X31394090Y-21892559D01*
X31324289Y-21844866D01*
X31381441Y-21808090D01*
X31526431Y-21595890D01*
X31577440Y-21344000D01*
X31577440Y-20144000D01*
X31533162Y-19908683D01*
X31394090Y-19692559D01*
X31384317Y-19685881D01*
X31526431Y-19477890D01*
X31577440Y-19226000D01*
X31577440Y-18026000D01*
X31533162Y-17790683D01*
X31394090Y-17574559D01*
X31324289Y-17526866D01*
X31381441Y-17490090D01*
X31526431Y-17277890D01*
X31577440Y-17026000D01*
X31577440Y-15826000D01*
X31555613Y-15710000D01*
X31681000Y-15710000D01*
X31681000Y-16140250D01*
X31681000Y-16140250D01*
G37*
X31681000Y-16140250D02*
X31839750Y-16299000D01*
X32639000Y-16299000D01*
X32639000Y-16279000D01*
X32893000Y-16279000D01*
X32893000Y-16299000D01*
X32913000Y-16299000D01*
X32913000Y-16553000D01*
X32893000Y-16553000D01*
X32893000Y-16573000D01*
X32639000Y-16573000D01*
X32639000Y-16553000D01*
X31839750Y-16553000D01*
X31681000Y-16711750D01*
X31681000Y-17152309D01*
X31777673Y-17385698D01*
X31918910Y-17526936D01*
X31864559Y-17561910D01*
X31719569Y-17774110D01*
X31668560Y-18026000D01*
X31668560Y-19226000D01*
X31712838Y-19461317D01*
X31851910Y-19677441D01*
X31861683Y-19684119D01*
X31719569Y-19892110D01*
X31668560Y-20144000D01*
X31668560Y-21344000D01*
X31712838Y-21579317D01*
X31851910Y-21795441D01*
X31921711Y-21843134D01*
X31864559Y-21879910D01*
X31744925Y-22055000D01*
X31498618Y-22055000D01*
X31394090Y-21892559D01*
X31324289Y-21844866D01*
X31381441Y-21808090D01*
X31526431Y-21595890D01*
X31577440Y-21344000D01*
X31577440Y-20144000D01*
X31533162Y-19908683D01*
X31394090Y-19692559D01*
X31384317Y-19685881D01*
X31526431Y-19477890D01*
X31577440Y-19226000D01*
X31577440Y-18026000D01*
X31533162Y-17790683D01*
X31394090Y-17574559D01*
X31324289Y-17526866D01*
X31381441Y-17490090D01*
X31526431Y-17277890D01*
X31577440Y-17026000D01*
X31577440Y-15826000D01*
X31555613Y-15710000D01*
X31681000Y-15710000D01*
X31681000Y-16140250D01*
G36*
X27649748Y-19099858D02*
X27635605Y-19114000D01*
X27649748Y-19128143D01*
X27470143Y-19307748D01*
X27456000Y-19293605D01*
X27441858Y-19307748D01*
X27262253Y-19128143D01*
X27276395Y-19114000D01*
X27262253Y-19099858D01*
X27441858Y-18920253D01*
X27456000Y-18934395D01*
X27470143Y-18920253D01*
X27649748Y-19099858D01*
X27649748Y-19099858D01*
G37*
X27649748Y-19099858D02*
X27635605Y-19114000D01*
X27649748Y-19128143D01*
X27470143Y-19307748D01*
X27456000Y-19293605D01*
X27441858Y-19307748D01*
X27262253Y-19128143D01*
X27276395Y-19114000D01*
X27262253Y-19099858D01*
X27441858Y-18920253D01*
X27456000Y-18934395D01*
X27470143Y-18920253D01*
X27649748Y-19099858D01*
G36*
X25103000Y-19241000D02*
X24159000Y-19241000D01*
X24159000Y-18987000D01*
X25103000Y-18987000D01*
X25103000Y-19241000D01*
X25103000Y-19241000D01*
G37*
X25103000Y-19241000D02*
X24159000Y-19241000D01*
X24159000Y-18987000D01*
X25103000Y-18987000D01*
X25103000Y-19241000D01*
G36*
X20221000Y-15937000D02*
X20221000Y-16287000D01*
X23829000Y-16287000D01*
X23829000Y-16267000D01*
X24083000Y-16267000D01*
X24083000Y-16287000D01*
X25829000Y-16287000D01*
X25829000Y-16267000D01*
X26083000Y-16267000D01*
X26083000Y-16287000D01*
X28603000Y-16287000D01*
X28603000Y-16541000D01*
X26083000Y-16541000D01*
X26083000Y-16561000D01*
X25829000Y-16561000D01*
X25829000Y-16541000D01*
X24083000Y-16541000D01*
X24083000Y-16561000D01*
X23829000Y-16561000D01*
X23829000Y-16541000D01*
X20221000Y-16541000D01*
X20221000Y-16624543D01*
X19930798Y-15922199D01*
X19718969Y-15710000D01*
X20290927Y-15710000D01*
X20221000Y-15937000D01*
X20221000Y-15937000D01*
G37*
X20221000Y-15937000D02*
X20221000Y-16287000D01*
X23829000Y-16287000D01*
X23829000Y-16267000D01*
X24083000Y-16267000D01*
X24083000Y-16287000D01*
X25829000Y-16287000D01*
X25829000Y-16267000D01*
X26083000Y-16267000D01*
X26083000Y-16287000D01*
X28603000Y-16287000D01*
X28603000Y-16541000D01*
X26083000Y-16541000D01*
X26083000Y-16561000D01*
X25829000Y-16561000D01*
X25829000Y-16541000D01*
X24083000Y-16541000D01*
X24083000Y-16561000D01*
X23829000Y-16561000D01*
X23829000Y-16541000D01*
X20221000Y-16541000D01*
X20221000Y-16624543D01*
X19930798Y-15922199D01*
X19718969Y-15710000D01*
X20290927Y-15710000D01*
X20221000Y-15937000D01*
M02*
