G04 #@! TF.FileFunction,Legend,Bot*
%FSLAX46Y46*%
G04 Gerber Fmt 4.6, Leading zero omitted, Abs format (unit mm)*
G04 Created by KiCad (PCBNEW 4.0.7) date 04/30/18 22:22:12*
%MOMM*%
%LPD*%
G01*
G04 APERTURE LIST*
%ADD10C,0.100000*%
%ADD11C,0.180000*%
G04 APERTURE END LIST*
D10*
D11*
X22777786Y-22368285D02*
X23384929Y-22368285D01*
X23456357Y-22404000D01*
X23492071Y-22439714D01*
X23527786Y-22511143D01*
X23527786Y-22654000D01*
X23492071Y-22725428D01*
X23456357Y-22761143D01*
X23384929Y-22796857D01*
X22777786Y-22796857D01*
X23492071Y-23118285D02*
X23527786Y-23225428D01*
X23527786Y-23403999D01*
X23492071Y-23475428D01*
X23456357Y-23511142D01*
X23384929Y-23546857D01*
X23313500Y-23546857D01*
X23242071Y-23511142D01*
X23206357Y-23475428D01*
X23170643Y-23403999D01*
X23134929Y-23261142D01*
X23099214Y-23189714D01*
X23063500Y-23153999D01*
X22992071Y-23118285D01*
X22920643Y-23118285D01*
X22849214Y-23153999D01*
X22813500Y-23189714D01*
X22777786Y-23261142D01*
X22777786Y-23439714D01*
X22813500Y-23546857D01*
X23134929Y-24118285D02*
X23170643Y-24225428D01*
X23206357Y-24261143D01*
X23277786Y-24296857D01*
X23384929Y-24296857D01*
X23456357Y-24261143D01*
X23492071Y-24225428D01*
X23527786Y-24154000D01*
X23527786Y-23868285D01*
X22777786Y-23868285D01*
X22777786Y-24118285D01*
X22813500Y-24189714D01*
X22849214Y-24225428D01*
X22920643Y-24261143D01*
X22992071Y-24261143D01*
X23063500Y-24225428D01*
X23099214Y-24189714D01*
X23134929Y-24118285D01*
X23134929Y-23868285D01*
X23027786Y-25082572D02*
X23027786Y-25368286D01*
X22777786Y-25189714D02*
X23420643Y-25189714D01*
X23492071Y-25225429D01*
X23527786Y-25296857D01*
X23527786Y-25368286D01*
X23527786Y-25725428D02*
X23492071Y-25654000D01*
X23456357Y-25618285D01*
X23384929Y-25582571D01*
X23170643Y-25582571D01*
X23099214Y-25618285D01*
X23063500Y-25654000D01*
X23027786Y-25725428D01*
X23027786Y-25832571D01*
X23063500Y-25904000D01*
X23099214Y-25939714D01*
X23170643Y-25975428D01*
X23384929Y-25975428D01*
X23456357Y-25939714D01*
X23492071Y-25904000D01*
X23527786Y-25832571D01*
X23527786Y-25725428D01*
X22777786Y-26796857D02*
X22777786Y-27261143D01*
X23063500Y-27011143D01*
X23063500Y-27118285D01*
X23099214Y-27189714D01*
X23134929Y-27225428D01*
X23206357Y-27261143D01*
X23384929Y-27261143D01*
X23456357Y-27225428D01*
X23492071Y-27189714D01*
X23527786Y-27118285D01*
X23527786Y-26904000D01*
X23492071Y-26832571D01*
X23456357Y-26796857D01*
X23456357Y-27582571D02*
X23492071Y-27618286D01*
X23527786Y-27582571D01*
X23492071Y-27546857D01*
X23456357Y-27582571D01*
X23527786Y-27582571D01*
X22777786Y-27868286D02*
X22777786Y-28332572D01*
X23063500Y-28082572D01*
X23063500Y-28189714D01*
X23099214Y-28261143D01*
X23134929Y-28296857D01*
X23206357Y-28332572D01*
X23384929Y-28332572D01*
X23456357Y-28296857D01*
X23492071Y-28261143D01*
X23527786Y-28189714D01*
X23527786Y-27975429D01*
X23492071Y-27904000D01*
X23456357Y-27868286D01*
X22777786Y-28546858D02*
X23527786Y-28796858D01*
X22777786Y-29046858D01*
X24832786Y-22564715D02*
X24832786Y-22207572D01*
X24082786Y-22207572D01*
X24832786Y-22814715D02*
X24332786Y-22814715D01*
X24082786Y-22814715D02*
X24118500Y-22779001D01*
X24154214Y-22814715D01*
X24118500Y-22850430D01*
X24082786Y-22814715D01*
X24154214Y-22814715D01*
X24332786Y-23171858D02*
X25082786Y-23171858D01*
X24368500Y-23171858D02*
X24332786Y-23243287D01*
X24332786Y-23386144D01*
X24368500Y-23457573D01*
X24404214Y-23493287D01*
X24475643Y-23529001D01*
X24689929Y-23529001D01*
X24761357Y-23493287D01*
X24797071Y-23457573D01*
X24832786Y-23386144D01*
X24832786Y-23243287D01*
X24797071Y-23171858D01*
X24832786Y-23957572D02*
X24797071Y-23886144D01*
X24761357Y-23850429D01*
X24689929Y-23814715D01*
X24475643Y-23814715D01*
X24404214Y-23850429D01*
X24368500Y-23886144D01*
X24332786Y-23957572D01*
X24332786Y-24064715D01*
X24368500Y-24136144D01*
X24404214Y-24171858D01*
X24475643Y-24207572D01*
X24689929Y-24207572D01*
X24761357Y-24171858D01*
X24797071Y-24136144D01*
X24832786Y-24064715D01*
X24832786Y-23957572D01*
X24761357Y-25529001D02*
X24797071Y-25493287D01*
X24832786Y-25386144D01*
X24832786Y-25314715D01*
X24797071Y-25207572D01*
X24725643Y-25136144D01*
X24654214Y-25100429D01*
X24511357Y-25064715D01*
X24404214Y-25064715D01*
X24261357Y-25100429D01*
X24189929Y-25136144D01*
X24118500Y-25207572D01*
X24082786Y-25314715D01*
X24082786Y-25386144D01*
X24118500Y-25493287D01*
X24154214Y-25529001D01*
X24832786Y-25850429D02*
X24082786Y-25850429D01*
X24832786Y-26171858D02*
X24439929Y-26171858D01*
X24368500Y-26136144D01*
X24332786Y-26064715D01*
X24332786Y-25957572D01*
X24368500Y-25886144D01*
X24404214Y-25850429D01*
X24832786Y-26850429D02*
X24439929Y-26850429D01*
X24368500Y-26814715D01*
X24332786Y-26743286D01*
X24332786Y-26600429D01*
X24368500Y-26529000D01*
X24797071Y-26850429D02*
X24832786Y-26779000D01*
X24832786Y-26600429D01*
X24797071Y-26529000D01*
X24725643Y-26493286D01*
X24654214Y-26493286D01*
X24582786Y-26529000D01*
X24547071Y-26600429D01*
X24547071Y-26779000D01*
X24511357Y-26850429D01*
X24832786Y-27207571D02*
X24332786Y-27207571D01*
X24475643Y-27207571D02*
X24404214Y-27243286D01*
X24368500Y-27279000D01*
X24332786Y-27350429D01*
X24332786Y-27421857D01*
X24332786Y-27993286D02*
X24939929Y-27993286D01*
X25011357Y-27957572D01*
X25047071Y-27921857D01*
X25082786Y-27850429D01*
X25082786Y-27743286D01*
X25047071Y-27671857D01*
X24797071Y-27993286D02*
X24832786Y-27921857D01*
X24832786Y-27779000D01*
X24797071Y-27707572D01*
X24761357Y-27671857D01*
X24689929Y-27636143D01*
X24475643Y-27636143D01*
X24404214Y-27671857D01*
X24368500Y-27707572D01*
X24332786Y-27779000D01*
X24332786Y-27921857D01*
X24368500Y-27993286D01*
X24797071Y-28636143D02*
X24832786Y-28564714D01*
X24832786Y-28421857D01*
X24797071Y-28350428D01*
X24725643Y-28314714D01*
X24439929Y-28314714D01*
X24368500Y-28350428D01*
X24332786Y-28421857D01*
X24332786Y-28564714D01*
X24368500Y-28636143D01*
X24439929Y-28671857D01*
X24511357Y-28671857D01*
X24582786Y-28314714D01*
X24832786Y-28993285D02*
X24332786Y-28993285D01*
X24475643Y-28993285D02*
X24404214Y-29029000D01*
X24368500Y-29064714D01*
X24332786Y-29136143D01*
X24332786Y-29207571D01*
X26137786Y-22439715D02*
X25387786Y-22439715D01*
X26137786Y-22868287D01*
X25387786Y-22868287D01*
X26137786Y-23546858D02*
X25744929Y-23546858D01*
X25673500Y-23511144D01*
X25637786Y-23439715D01*
X25637786Y-23296858D01*
X25673500Y-23225429D01*
X26102071Y-23546858D02*
X26137786Y-23475429D01*
X26137786Y-23296858D01*
X26102071Y-23225429D01*
X26030643Y-23189715D01*
X25959214Y-23189715D01*
X25887786Y-23225429D01*
X25852071Y-23296858D01*
X25852071Y-23475429D01*
X25816357Y-23546858D01*
X25637786Y-23904000D02*
X26137786Y-23904000D01*
X25709214Y-23904000D02*
X25673500Y-23939715D01*
X25637786Y-24011143D01*
X25637786Y-24118286D01*
X25673500Y-24189715D01*
X25744929Y-24225429D01*
X26137786Y-24225429D01*
X26137786Y-24689714D02*
X26102071Y-24618286D01*
X26066357Y-24582571D01*
X25994929Y-24546857D01*
X25780643Y-24546857D01*
X25709214Y-24582571D01*
X25673500Y-24618286D01*
X25637786Y-24689714D01*
X25637786Y-24796857D01*
X25673500Y-24868286D01*
X25709214Y-24904000D01*
X25780643Y-24939714D01*
X25994929Y-24939714D01*
X26066357Y-24904000D01*
X26102071Y-24868286D01*
X26137786Y-24796857D01*
X26137786Y-24689714D01*
X25852071Y-25261142D02*
X25852071Y-25832571D01*
X25387786Y-26082571D02*
X25387786Y-26511142D01*
X26137786Y-26296856D02*
X25387786Y-26296856D01*
X26137786Y-26761142D02*
X25637786Y-26761142D01*
X25387786Y-26761142D02*
X25423500Y-26725428D01*
X25459214Y-26761142D01*
X25423500Y-26796857D01*
X25387786Y-26761142D01*
X25459214Y-26761142D01*
X26137786Y-27118285D02*
X25637786Y-27118285D01*
X25709214Y-27118285D02*
X25673500Y-27154000D01*
X25637786Y-27225428D01*
X25637786Y-27332571D01*
X25673500Y-27404000D01*
X25744929Y-27439714D01*
X26137786Y-27439714D01*
X25744929Y-27439714D02*
X25673500Y-27475428D01*
X25637786Y-27546857D01*
X25637786Y-27654000D01*
X25673500Y-27725428D01*
X25744929Y-27761143D01*
X26137786Y-27761143D01*
X26102071Y-28404000D02*
X26137786Y-28332571D01*
X26137786Y-28189714D01*
X26102071Y-28118285D01*
X26030643Y-28082571D01*
X25744929Y-28082571D01*
X25673500Y-28118285D01*
X25637786Y-28189714D01*
X25637786Y-28332571D01*
X25673500Y-28404000D01*
X25744929Y-28439714D01*
X25816357Y-28439714D01*
X25887786Y-28082571D01*
X26137786Y-28761142D02*
X25637786Y-28761142D01*
X25780643Y-28761142D02*
X25709214Y-28796857D01*
X25673500Y-28832571D01*
X25637786Y-28904000D01*
X25637786Y-28975428D01*
X26692786Y-20582570D02*
X27228500Y-20582570D01*
X27335643Y-20546856D01*
X27407071Y-20475427D01*
X27442786Y-20368284D01*
X27442786Y-20296856D01*
X27442786Y-20939713D02*
X26692786Y-20939713D01*
X26692786Y-21118285D01*
X26728500Y-21225428D01*
X26799929Y-21296856D01*
X26871357Y-21332571D01*
X27014214Y-21368285D01*
X27121357Y-21368285D01*
X27264214Y-21332571D01*
X27335643Y-21296856D01*
X27407071Y-21225428D01*
X27442786Y-21118285D01*
X27442786Y-20939713D01*
X27442786Y-21689713D02*
X26692786Y-21689713D01*
X26692786Y-21868285D01*
X26728500Y-21975428D01*
X26799929Y-22046856D01*
X26871357Y-22082571D01*
X27014214Y-22118285D01*
X27121357Y-22118285D01*
X27264214Y-22082571D01*
X27335643Y-22046856D01*
X27407071Y-21975428D01*
X27442786Y-21868285D01*
X27442786Y-21689713D01*
X26942786Y-22939714D02*
X27442786Y-23118285D01*
X26942786Y-23296857D01*
X26764214Y-23546857D02*
X26728500Y-23582571D01*
X26692786Y-23654000D01*
X26692786Y-23832571D01*
X26728500Y-23904000D01*
X26764214Y-23939714D01*
X26835643Y-23975429D01*
X26907071Y-23975429D01*
X27014214Y-23939714D01*
X27442786Y-23511143D01*
X27442786Y-23975429D01*
X27371357Y-24296857D02*
X27407071Y-24332572D01*
X27442786Y-24296857D01*
X27407071Y-24261143D01*
X27371357Y-24296857D01*
X27442786Y-24296857D01*
X26692786Y-24796858D02*
X26692786Y-24868286D01*
X26728500Y-24939715D01*
X26764214Y-24975429D01*
X26835643Y-25011143D01*
X26978500Y-25046858D01*
X27157071Y-25046858D01*
X27299929Y-25011143D01*
X27371357Y-24975429D01*
X27407071Y-24939715D01*
X27442786Y-24868286D01*
X27442786Y-24796858D01*
X27407071Y-24725429D01*
X27371357Y-24689715D01*
X27299929Y-24654000D01*
X27157071Y-24618286D01*
X26978500Y-24618286D01*
X26835643Y-24654000D01*
X26764214Y-24689715D01*
X26728500Y-24725429D01*
X26692786Y-24796858D01*
X27407071Y-25404001D02*
X27442786Y-25404001D01*
X27514214Y-25368286D01*
X27549929Y-25332572D01*
X26692786Y-26225430D02*
X26692786Y-26689716D01*
X26978500Y-26439716D01*
X26978500Y-26546858D01*
X27014214Y-26618287D01*
X27049929Y-26654001D01*
X27121357Y-26689716D01*
X27299929Y-26689716D01*
X27371357Y-26654001D01*
X27407071Y-26618287D01*
X27442786Y-26546858D01*
X27442786Y-26332573D01*
X27407071Y-26261144D01*
X27371357Y-26225430D01*
X26692786Y-27154002D02*
X26692786Y-27225430D01*
X26728500Y-27296859D01*
X26764214Y-27332573D01*
X26835643Y-27368287D01*
X26978500Y-27404002D01*
X27157071Y-27404002D01*
X27299929Y-27368287D01*
X27371357Y-27332573D01*
X27407071Y-27296859D01*
X27442786Y-27225430D01*
X27442786Y-27154002D01*
X27407071Y-27082573D01*
X27371357Y-27046859D01*
X27299929Y-27011144D01*
X27157071Y-26975430D01*
X26978500Y-26975430D01*
X26835643Y-27011144D01*
X26764214Y-27046859D01*
X26728500Y-27082573D01*
X26692786Y-27154002D01*
X27228500Y-27689716D02*
X27228500Y-28046859D01*
X27442786Y-27618288D02*
X26692786Y-27868288D01*
X27442786Y-28118288D01*
X27442786Y-28368287D02*
X26692786Y-28368287D01*
X26692786Y-28654002D01*
X26728500Y-28725430D01*
X26764214Y-28761145D01*
X26835643Y-28796859D01*
X26942786Y-28796859D01*
X27014214Y-28761145D01*
X27049929Y-28725430D01*
X27085643Y-28654002D01*
X27085643Y-28368287D01*
X27442786Y-29546859D02*
X27085643Y-29296859D01*
X27442786Y-29118287D02*
X26692786Y-29118287D01*
X26692786Y-29404002D01*
X26728500Y-29475430D01*
X26764214Y-29511145D01*
X26835643Y-29546859D01*
X26942786Y-29546859D01*
X27014214Y-29511145D01*
X27049929Y-29475430D01*
X27085643Y-29404002D01*
X27085643Y-29118287D01*
X27442786Y-30261145D02*
X27442786Y-29832573D01*
X27442786Y-30046859D02*
X26692786Y-30046859D01*
X26799929Y-29975430D01*
X26871357Y-29904002D01*
X26907071Y-29832573D01*
X27014214Y-30689716D02*
X26978500Y-30618288D01*
X26942786Y-30582573D01*
X26871357Y-30546859D01*
X26835643Y-30546859D01*
X26764214Y-30582573D01*
X26728500Y-30618288D01*
X26692786Y-30689716D01*
X26692786Y-30832573D01*
X26728500Y-30904002D01*
X26764214Y-30939716D01*
X26835643Y-30975431D01*
X26871357Y-30975431D01*
X26942786Y-30939716D01*
X26978500Y-30904002D01*
X27014214Y-30832573D01*
X27014214Y-30689716D01*
X27049929Y-30618288D01*
X27085643Y-30582573D01*
X27157071Y-30546859D01*
X27299929Y-30546859D01*
X27371357Y-30582573D01*
X27407071Y-30618288D01*
X27442786Y-30689716D01*
X27442786Y-30832573D01*
X27407071Y-30904002D01*
X27371357Y-30939716D01*
X27299929Y-30975431D01*
X27157071Y-30975431D01*
X27085643Y-30939716D01*
X27049929Y-30904002D01*
X27014214Y-30832573D01*
X16017286Y-22416286D02*
X15660143Y-22166286D01*
X16017286Y-21987714D02*
X15267286Y-21987714D01*
X15267286Y-22273429D01*
X15303000Y-22344857D01*
X15338714Y-22380572D01*
X15410143Y-22416286D01*
X15517286Y-22416286D01*
X15588714Y-22380572D01*
X15624429Y-22344857D01*
X15660143Y-22273429D01*
X15660143Y-21987714D01*
X15267286Y-23059143D02*
X15267286Y-22916286D01*
X15303000Y-22844857D01*
X15338714Y-22809143D01*
X15445857Y-22737714D01*
X15588714Y-22702000D01*
X15874429Y-22702000D01*
X15945857Y-22737714D01*
X15981571Y-22773429D01*
X16017286Y-22844857D01*
X16017286Y-22987714D01*
X15981571Y-23059143D01*
X15945857Y-23094857D01*
X15874429Y-23130572D01*
X15695857Y-23130572D01*
X15624429Y-23094857D01*
X15588714Y-23059143D01*
X15553000Y-22987714D01*
X15553000Y-22844857D01*
X15588714Y-22773429D01*
X15624429Y-22737714D01*
X15695857Y-22702000D01*
X15981571Y-23987715D02*
X16017286Y-24059144D01*
X16017286Y-24202001D01*
X15981571Y-24273429D01*
X15910143Y-24309144D01*
X15874429Y-24309144D01*
X15803000Y-24273429D01*
X15767286Y-24202001D01*
X15767286Y-24094858D01*
X15731571Y-24023429D01*
X15660143Y-23987715D01*
X15624429Y-23987715D01*
X15553000Y-24023429D01*
X15517286Y-24094858D01*
X15517286Y-24202001D01*
X15553000Y-24273429D01*
X15981571Y-24916287D02*
X16017286Y-24844858D01*
X16017286Y-24702001D01*
X15981571Y-24630572D01*
X15910143Y-24594858D01*
X15624429Y-24594858D01*
X15553000Y-24630572D01*
X15517286Y-24702001D01*
X15517286Y-24844858D01*
X15553000Y-24916287D01*
X15624429Y-24952001D01*
X15695857Y-24952001D01*
X15767286Y-24594858D01*
X15517286Y-25166287D02*
X15517286Y-25452001D01*
X15267286Y-25273429D02*
X15910143Y-25273429D01*
X15981571Y-25309144D01*
X16017286Y-25380572D01*
X16017286Y-25452001D01*
X15981571Y-25666286D02*
X16017286Y-25737715D01*
X16017286Y-25880572D01*
X15981571Y-25952000D01*
X15910143Y-25987715D01*
X15874429Y-25987715D01*
X15803000Y-25952000D01*
X15767286Y-25880572D01*
X15767286Y-25773429D01*
X15731571Y-25702000D01*
X15660143Y-25666286D01*
X15624429Y-25666286D01*
X15553000Y-25702000D01*
X15517286Y-25773429D01*
X15517286Y-25880572D01*
X15553000Y-25952000D01*
X15517286Y-26773430D02*
X15517286Y-27059144D01*
X15267286Y-26880572D02*
X15910143Y-26880572D01*
X15981571Y-26916287D01*
X16017286Y-26987715D01*
X16017286Y-27059144D01*
X16017286Y-27309143D02*
X15517286Y-27309143D01*
X15267286Y-27309143D02*
X15303000Y-27273429D01*
X15338714Y-27309143D01*
X15303000Y-27344858D01*
X15267286Y-27309143D01*
X15338714Y-27309143D01*
X16017286Y-27666286D02*
X15517286Y-27666286D01*
X15588714Y-27666286D02*
X15553000Y-27702001D01*
X15517286Y-27773429D01*
X15517286Y-27880572D01*
X15553000Y-27952001D01*
X15624429Y-27987715D01*
X16017286Y-27987715D01*
X15624429Y-27987715D02*
X15553000Y-28023429D01*
X15517286Y-28094858D01*
X15517286Y-28202001D01*
X15553000Y-28273429D01*
X15624429Y-28309144D01*
X16017286Y-28309144D01*
X15981571Y-28952001D02*
X16017286Y-28880572D01*
X16017286Y-28737715D01*
X15981571Y-28666286D01*
X15910143Y-28630572D01*
X15624429Y-28630572D01*
X15553000Y-28666286D01*
X15517286Y-28737715D01*
X15517286Y-28880572D01*
X15553000Y-28952001D01*
X15624429Y-28987715D01*
X15695857Y-28987715D01*
X15767286Y-28630572D01*
X16017286Y-29309143D02*
X15517286Y-29309143D01*
X15660143Y-29309143D02*
X15588714Y-29344858D01*
X15553000Y-29380572D01*
X15517286Y-29452001D01*
X15517286Y-29523429D01*
X15517286Y-30237716D02*
X15517286Y-30523430D01*
X16017286Y-30344858D02*
X15374429Y-30344858D01*
X15303000Y-30380573D01*
X15267286Y-30452001D01*
X15267286Y-30523430D01*
X16017286Y-30773429D02*
X15517286Y-30773429D01*
X15660143Y-30773429D02*
X15588714Y-30809144D01*
X15553000Y-30844858D01*
X15517286Y-30916287D01*
X15517286Y-30987715D01*
X15981571Y-31523430D02*
X16017286Y-31452001D01*
X16017286Y-31309144D01*
X15981571Y-31237715D01*
X15910143Y-31202001D01*
X15624429Y-31202001D01*
X15553000Y-31237715D01*
X15517286Y-31309144D01*
X15517286Y-31452001D01*
X15553000Y-31523430D01*
X15624429Y-31559144D01*
X15695857Y-31559144D01*
X15767286Y-31202001D01*
X15517286Y-32202001D02*
X16267286Y-32202001D01*
X15981571Y-32202001D02*
X16017286Y-32130572D01*
X16017286Y-31987715D01*
X15981571Y-31916287D01*
X15945857Y-31880572D01*
X15874429Y-31844858D01*
X15660143Y-31844858D01*
X15588714Y-31880572D01*
X15553000Y-31916287D01*
X15517286Y-31987715D01*
X15517286Y-32130572D01*
X15553000Y-32202001D01*
X15517286Y-32880572D02*
X16017286Y-32880572D01*
X15517286Y-32559143D02*
X15910143Y-32559143D01*
X15981571Y-32594858D01*
X16017286Y-32666286D01*
X16017286Y-32773429D01*
X15981571Y-32844858D01*
X15945857Y-32880572D01*
X15981571Y-33523429D02*
X16017286Y-33452000D01*
X16017286Y-33309143D01*
X15981571Y-33237714D01*
X15910143Y-33202000D01*
X15624429Y-33202000D01*
X15553000Y-33237714D01*
X15517286Y-33309143D01*
X15517286Y-33452000D01*
X15553000Y-33523429D01*
X15624429Y-33559143D01*
X15695857Y-33559143D01*
X15767286Y-33202000D01*
X15517286Y-33880571D02*
X16017286Y-33880571D01*
X15588714Y-33880571D02*
X15553000Y-33916286D01*
X15517286Y-33987714D01*
X15517286Y-34094857D01*
X15553000Y-34166286D01*
X15624429Y-34202000D01*
X16017286Y-34202000D01*
X15981571Y-34880571D02*
X16017286Y-34809142D01*
X16017286Y-34666285D01*
X15981571Y-34594857D01*
X15945857Y-34559142D01*
X15874429Y-34523428D01*
X15660143Y-34523428D01*
X15588714Y-34559142D01*
X15553000Y-34594857D01*
X15517286Y-34666285D01*
X15517286Y-34809142D01*
X15553000Y-34880571D01*
X15517286Y-35130571D02*
X16017286Y-35309142D01*
X15517286Y-35487714D02*
X16017286Y-35309142D01*
X16195857Y-35237714D01*
X16231571Y-35201999D01*
X16267286Y-35130571D01*
X17608000Y-23934143D02*
X17572286Y-23898429D01*
X17465143Y-23827000D01*
X17393714Y-23791286D01*
X17286571Y-23755572D01*
X17108000Y-23719857D01*
X16965143Y-23719857D01*
X16786571Y-23755572D01*
X16679429Y-23791286D01*
X16608000Y-23827000D01*
X16500857Y-23898429D01*
X16465143Y-23934143D01*
X16822286Y-24541286D02*
X17322286Y-24541286D01*
X16536571Y-24362715D02*
X17072286Y-24184143D01*
X17072286Y-24648429D01*
X16572286Y-24862715D02*
X16572286Y-25327001D01*
X16858000Y-25077001D01*
X16858000Y-25184143D01*
X16893714Y-25255572D01*
X16929429Y-25291286D01*
X17000857Y-25327001D01*
X17179429Y-25327001D01*
X17250857Y-25291286D01*
X17286571Y-25255572D01*
X17322286Y-25184143D01*
X17322286Y-24969858D01*
X17286571Y-24898429D01*
X17250857Y-24862715D01*
X17322286Y-25648429D02*
X16572286Y-25648429D01*
X17036571Y-25719858D02*
X17322286Y-25934144D01*
X16822286Y-25934144D02*
X17108000Y-25648429D01*
X16572286Y-26398430D02*
X16572286Y-26541287D01*
X16608000Y-26612715D01*
X16679429Y-26684144D01*
X16822286Y-26719858D01*
X17072286Y-26719858D01*
X17215143Y-26684144D01*
X17286571Y-26612715D01*
X17322286Y-26541287D01*
X17322286Y-26398430D01*
X17286571Y-26327001D01*
X17215143Y-26255572D01*
X17072286Y-26219858D01*
X16822286Y-26219858D01*
X16679429Y-26255572D01*
X16608000Y-26327001D01*
X16572286Y-26398430D01*
X17322286Y-27041286D02*
X16572286Y-27041286D01*
X17322286Y-27362715D02*
X16929429Y-27362715D01*
X16858000Y-27327001D01*
X16822286Y-27255572D01*
X16822286Y-27148429D01*
X16858000Y-27077001D01*
X16893714Y-27041286D01*
X17322286Y-27719857D02*
X16822286Y-27719857D01*
X16893714Y-27719857D02*
X16858000Y-27755572D01*
X16822286Y-27827000D01*
X16822286Y-27934143D01*
X16858000Y-28005572D01*
X16929429Y-28041286D01*
X17322286Y-28041286D01*
X16929429Y-28041286D02*
X16858000Y-28077000D01*
X16822286Y-28148429D01*
X16822286Y-28255572D01*
X16858000Y-28327000D01*
X16929429Y-28362715D01*
X17322286Y-28362715D01*
X16929429Y-29291286D02*
X16929429Y-29862715D01*
X17143714Y-29862715D02*
X17143714Y-29291286D01*
X16572286Y-31148429D02*
X16572286Y-30791286D01*
X16929429Y-30755572D01*
X16893714Y-30791286D01*
X16858000Y-30862715D01*
X16858000Y-31041286D01*
X16893714Y-31112715D01*
X16929429Y-31148429D01*
X17000857Y-31184144D01*
X17179429Y-31184144D01*
X17250857Y-31148429D01*
X17286571Y-31112715D01*
X17322286Y-31041286D01*
X17322286Y-30862715D01*
X17286571Y-30791286D01*
X17250857Y-30755572D01*
X17322286Y-31505572D02*
X16822286Y-31505572D01*
X16893714Y-31505572D02*
X16858000Y-31541287D01*
X16822286Y-31612715D01*
X16822286Y-31719858D01*
X16858000Y-31791287D01*
X16929429Y-31827001D01*
X17322286Y-31827001D01*
X16929429Y-31827001D02*
X16858000Y-31862715D01*
X16822286Y-31934144D01*
X16822286Y-32041287D01*
X16858000Y-32112715D01*
X16929429Y-32148430D01*
X17322286Y-32148430D01*
X17322286Y-32505572D02*
X16822286Y-32505572D01*
X16572286Y-32505572D02*
X16608000Y-32469858D01*
X16643714Y-32505572D01*
X16608000Y-32541287D01*
X16572286Y-32505572D01*
X16643714Y-32505572D01*
X16822286Y-32862715D02*
X17322286Y-32862715D01*
X16893714Y-32862715D02*
X16858000Y-32898430D01*
X16822286Y-32969858D01*
X16822286Y-33077001D01*
X16858000Y-33148430D01*
X16929429Y-33184144D01*
X17322286Y-33184144D01*
X17608000Y-33469858D02*
X17572286Y-33505572D01*
X17465143Y-33577001D01*
X17393714Y-33612715D01*
X17286571Y-33648429D01*
X17108000Y-33684144D01*
X16965143Y-33684144D01*
X16786571Y-33648429D01*
X16679429Y-33612715D01*
X16608000Y-33577001D01*
X16500857Y-33505572D01*
X16465143Y-33469858D01*
X18591571Y-22809144D02*
X18627286Y-22916287D01*
X18627286Y-23094858D01*
X18591571Y-23166287D01*
X18555857Y-23202001D01*
X18484429Y-23237716D01*
X18413000Y-23237716D01*
X18341571Y-23202001D01*
X18305857Y-23166287D01*
X18270143Y-23094858D01*
X18234429Y-22952001D01*
X18198714Y-22880573D01*
X18163000Y-22844858D01*
X18091571Y-22809144D01*
X18020143Y-22809144D01*
X17948714Y-22844858D01*
X17913000Y-22880573D01*
X17877286Y-22952001D01*
X17877286Y-23130573D01*
X17913000Y-23237716D01*
X17877286Y-23487716D02*
X18627286Y-23666287D01*
X18091571Y-23809144D01*
X18627286Y-23952002D01*
X17877286Y-24130573D01*
X18698714Y-24237716D02*
X18698714Y-24809145D01*
X18627286Y-24987716D02*
X17877286Y-24987716D01*
X17877286Y-25273431D01*
X17913000Y-25344859D01*
X17948714Y-25380574D01*
X18020143Y-25416288D01*
X18127286Y-25416288D01*
X18198714Y-25380574D01*
X18234429Y-25344859D01*
X18270143Y-25273431D01*
X18270143Y-24987716D01*
X18627286Y-25844859D02*
X18591571Y-25773431D01*
X18555857Y-25737716D01*
X18484429Y-25702002D01*
X18270143Y-25702002D01*
X18198714Y-25737716D01*
X18163000Y-25773431D01*
X18127286Y-25844859D01*
X18127286Y-25952002D01*
X18163000Y-26023431D01*
X18198714Y-26059145D01*
X18270143Y-26094859D01*
X18484429Y-26094859D01*
X18555857Y-26059145D01*
X18591571Y-26023431D01*
X18627286Y-25952002D01*
X18627286Y-25844859D01*
X18127286Y-26344859D02*
X18627286Y-26487716D01*
X18270143Y-26630573D01*
X18627286Y-26773430D01*
X18127286Y-26916287D01*
X18591571Y-27487716D02*
X18627286Y-27416287D01*
X18627286Y-27273430D01*
X18591571Y-27202001D01*
X18520143Y-27166287D01*
X18234429Y-27166287D01*
X18163000Y-27202001D01*
X18127286Y-27273430D01*
X18127286Y-27416287D01*
X18163000Y-27487716D01*
X18234429Y-27523430D01*
X18305857Y-27523430D01*
X18377286Y-27166287D01*
X18627286Y-27844858D02*
X18127286Y-27844858D01*
X18270143Y-27844858D02*
X18198714Y-27880573D01*
X18163000Y-27916287D01*
X18127286Y-27987716D01*
X18127286Y-28059144D01*
X18627286Y-28880573D02*
X18127286Y-28880573D01*
X18198714Y-28880573D02*
X18163000Y-28916288D01*
X18127286Y-28987716D01*
X18127286Y-29094859D01*
X18163000Y-29166288D01*
X18234429Y-29202002D01*
X18627286Y-29202002D01*
X18234429Y-29202002D02*
X18163000Y-29237716D01*
X18127286Y-29309145D01*
X18127286Y-29416288D01*
X18163000Y-29487716D01*
X18234429Y-29523431D01*
X18627286Y-29523431D01*
X18627286Y-30202002D02*
X18234429Y-30202002D01*
X18163000Y-30166288D01*
X18127286Y-30094859D01*
X18127286Y-29952002D01*
X18163000Y-29880573D01*
X18591571Y-30202002D02*
X18627286Y-30130573D01*
X18627286Y-29952002D01*
X18591571Y-29880573D01*
X18520143Y-29844859D01*
X18448714Y-29844859D01*
X18377286Y-29880573D01*
X18341571Y-29952002D01*
X18341571Y-30130573D01*
X18305857Y-30202002D01*
X18127286Y-30559144D02*
X18627286Y-30559144D01*
X18198714Y-30559144D02*
X18163000Y-30594859D01*
X18127286Y-30666287D01*
X18127286Y-30773430D01*
X18163000Y-30844859D01*
X18234429Y-30880573D01*
X18627286Y-30880573D01*
X18127286Y-31559144D02*
X18627286Y-31559144D01*
X18127286Y-31237715D02*
X18520143Y-31237715D01*
X18591571Y-31273430D01*
X18627286Y-31344858D01*
X18627286Y-31452001D01*
X18591571Y-31523430D01*
X18555857Y-31559144D01*
X18627286Y-32237715D02*
X18234429Y-32237715D01*
X18163000Y-32202001D01*
X18127286Y-32130572D01*
X18127286Y-31987715D01*
X18163000Y-31916286D01*
X18591571Y-32237715D02*
X18627286Y-32166286D01*
X18627286Y-31987715D01*
X18591571Y-31916286D01*
X18520143Y-31880572D01*
X18448714Y-31880572D01*
X18377286Y-31916286D01*
X18341571Y-31987715D01*
X18341571Y-32166286D01*
X18305857Y-32237715D01*
X18627286Y-32702000D02*
X18591571Y-32630572D01*
X18520143Y-32594857D01*
X17877286Y-32594857D01*
X18627286Y-33666286D02*
X18591571Y-33594858D01*
X18555857Y-33559143D01*
X18484429Y-33523429D01*
X18270143Y-33523429D01*
X18198714Y-33559143D01*
X18163000Y-33594858D01*
X18127286Y-33666286D01*
X18127286Y-33773429D01*
X18163000Y-33844858D01*
X18198714Y-33880572D01*
X18270143Y-33916286D01*
X18484429Y-33916286D01*
X18555857Y-33880572D01*
X18591571Y-33844858D01*
X18627286Y-33773429D01*
X18627286Y-33666286D01*
X18127286Y-34237714D02*
X18627286Y-34237714D01*
X18198714Y-34237714D02*
X18163000Y-34273429D01*
X18127286Y-34344857D01*
X18127286Y-34452000D01*
X18163000Y-34523429D01*
X18234429Y-34559143D01*
X18627286Y-34559143D01*
X19932286Y-20719858D02*
X19182286Y-20719858D01*
X19182286Y-20898430D01*
X19218000Y-21005573D01*
X19289429Y-21077001D01*
X19360857Y-21112716D01*
X19503714Y-21148430D01*
X19610857Y-21148430D01*
X19753714Y-21112716D01*
X19825143Y-21077001D01*
X19896571Y-21005573D01*
X19932286Y-20898430D01*
X19932286Y-20719858D01*
X19932286Y-21577001D02*
X19896571Y-21505573D01*
X19860857Y-21469858D01*
X19789429Y-21434144D01*
X19575143Y-21434144D01*
X19503714Y-21469858D01*
X19468000Y-21505573D01*
X19432286Y-21577001D01*
X19432286Y-21684144D01*
X19468000Y-21755573D01*
X19503714Y-21791287D01*
X19575143Y-21827001D01*
X19789429Y-21827001D01*
X19860857Y-21791287D01*
X19896571Y-21755573D01*
X19932286Y-21684144D01*
X19932286Y-21577001D01*
X19432286Y-22148429D02*
X19932286Y-22148429D01*
X19503714Y-22148429D02*
X19468000Y-22184144D01*
X19432286Y-22255572D01*
X19432286Y-22362715D01*
X19468000Y-22434144D01*
X19539429Y-22469858D01*
X19932286Y-22469858D01*
X19896571Y-23112715D02*
X19932286Y-23041286D01*
X19932286Y-22898429D01*
X19896571Y-22827000D01*
X19825143Y-22791286D01*
X19539429Y-22791286D01*
X19468000Y-22827000D01*
X19432286Y-22898429D01*
X19432286Y-23041286D01*
X19468000Y-23112715D01*
X19539429Y-23148429D01*
X19610857Y-23148429D01*
X19682286Y-22791286D01*
X19932286Y-24041286D02*
X19432286Y-24041286D01*
X19182286Y-24041286D02*
X19218000Y-24005572D01*
X19253714Y-24041286D01*
X19218000Y-24077001D01*
X19182286Y-24041286D01*
X19253714Y-24041286D01*
X19896571Y-24362715D02*
X19932286Y-24434144D01*
X19932286Y-24577001D01*
X19896571Y-24648429D01*
X19825143Y-24684144D01*
X19789429Y-24684144D01*
X19718000Y-24648429D01*
X19682286Y-24577001D01*
X19682286Y-24469858D01*
X19646571Y-24398429D01*
X19575143Y-24362715D01*
X19539429Y-24362715D01*
X19468000Y-24398429D01*
X19432286Y-24469858D01*
X19432286Y-24577001D01*
X19468000Y-24648429D01*
X19932286Y-25577001D02*
X19432286Y-25577001D01*
X19575143Y-25577001D02*
X19503714Y-25612716D01*
X19468000Y-25648430D01*
X19432286Y-25719859D01*
X19432286Y-25791287D01*
X19896571Y-26327002D02*
X19932286Y-26255573D01*
X19932286Y-26112716D01*
X19896571Y-26041287D01*
X19825143Y-26005573D01*
X19539429Y-26005573D01*
X19468000Y-26041287D01*
X19432286Y-26112716D01*
X19432286Y-26255573D01*
X19468000Y-26327002D01*
X19539429Y-26362716D01*
X19610857Y-26362716D01*
X19682286Y-26005573D01*
X19432286Y-26577002D02*
X19432286Y-26862716D01*
X19182286Y-26684144D02*
X19825143Y-26684144D01*
X19896571Y-26719859D01*
X19932286Y-26791287D01*
X19932286Y-26862716D01*
X19432286Y-27434144D02*
X19932286Y-27434144D01*
X19432286Y-27112715D02*
X19825143Y-27112715D01*
X19896571Y-27148430D01*
X19932286Y-27219858D01*
X19932286Y-27327001D01*
X19896571Y-27398430D01*
X19860857Y-27434144D01*
X19932286Y-27791286D02*
X19432286Y-27791286D01*
X19575143Y-27791286D02*
X19503714Y-27827001D01*
X19468000Y-27862715D01*
X19432286Y-27934144D01*
X19432286Y-28005572D01*
X19432286Y-28255572D02*
X19932286Y-28255572D01*
X19503714Y-28255572D02*
X19468000Y-28291287D01*
X19432286Y-28362715D01*
X19432286Y-28469858D01*
X19468000Y-28541287D01*
X19539429Y-28577001D01*
X19932286Y-28577001D01*
X19932286Y-29827001D02*
X19182286Y-29827001D01*
X19896571Y-29827001D02*
X19932286Y-29755572D01*
X19932286Y-29612715D01*
X19896571Y-29541287D01*
X19860857Y-29505572D01*
X19789429Y-29469858D01*
X19575143Y-29469858D01*
X19503714Y-29505572D01*
X19468000Y-29541287D01*
X19432286Y-29612715D01*
X19432286Y-29755572D01*
X19468000Y-29827001D01*
X19932286Y-30184143D02*
X19432286Y-30184143D01*
X19182286Y-30184143D02*
X19218000Y-30148429D01*
X19253714Y-30184143D01*
X19218000Y-30219858D01*
X19182286Y-30184143D01*
X19253714Y-30184143D01*
X19432286Y-30862715D02*
X20039429Y-30862715D01*
X20110857Y-30827001D01*
X20146571Y-30791286D01*
X20182286Y-30719858D01*
X20182286Y-30612715D01*
X20146571Y-30541286D01*
X19896571Y-30862715D02*
X19932286Y-30791286D01*
X19932286Y-30648429D01*
X19896571Y-30577001D01*
X19860857Y-30541286D01*
X19789429Y-30505572D01*
X19575143Y-30505572D01*
X19503714Y-30541286D01*
X19468000Y-30577001D01*
X19432286Y-30648429D01*
X19432286Y-30791286D01*
X19468000Y-30862715D01*
X19932286Y-31219857D02*
X19432286Y-31219857D01*
X19182286Y-31219857D02*
X19218000Y-31184143D01*
X19253714Y-31219857D01*
X19218000Y-31255572D01*
X19182286Y-31219857D01*
X19253714Y-31219857D01*
X19432286Y-31469858D02*
X19432286Y-31755572D01*
X19182286Y-31577000D02*
X19825143Y-31577000D01*
X19896571Y-31612715D01*
X19932286Y-31684143D01*
X19932286Y-31755572D01*
X19932286Y-32327000D02*
X19539429Y-32327000D01*
X19468000Y-32291286D01*
X19432286Y-32219857D01*
X19432286Y-32077000D01*
X19468000Y-32005571D01*
X19896571Y-32327000D02*
X19932286Y-32255571D01*
X19932286Y-32077000D01*
X19896571Y-32005571D01*
X19825143Y-31969857D01*
X19753714Y-31969857D01*
X19682286Y-32005571D01*
X19646571Y-32077000D01*
X19646571Y-32255571D01*
X19610857Y-32327000D01*
X19932286Y-32791285D02*
X19896571Y-32719857D01*
X19825143Y-32684142D01*
X19182286Y-32684142D01*
X19896571Y-33612714D02*
X19932286Y-33684143D01*
X19932286Y-33827000D01*
X19896571Y-33898428D01*
X19825143Y-33934143D01*
X19789429Y-33934143D01*
X19718000Y-33898428D01*
X19682286Y-33827000D01*
X19682286Y-33719857D01*
X19646571Y-33648428D01*
X19575143Y-33612714D01*
X19539429Y-33612714D01*
X19468000Y-33648428D01*
X19432286Y-33719857D01*
X19432286Y-33827000D01*
X19468000Y-33898428D01*
X19932286Y-34255571D02*
X19432286Y-34255571D01*
X19182286Y-34255571D02*
X19218000Y-34219857D01*
X19253714Y-34255571D01*
X19218000Y-34291286D01*
X19182286Y-34255571D01*
X19253714Y-34255571D01*
X19432286Y-34934143D02*
X20039429Y-34934143D01*
X20110857Y-34898429D01*
X20146571Y-34862714D01*
X20182286Y-34791286D01*
X20182286Y-34684143D01*
X20146571Y-34612714D01*
X19896571Y-34934143D02*
X19932286Y-34862714D01*
X19932286Y-34719857D01*
X19896571Y-34648429D01*
X19860857Y-34612714D01*
X19789429Y-34577000D01*
X19575143Y-34577000D01*
X19503714Y-34612714D01*
X19468000Y-34648429D01*
X19432286Y-34719857D01*
X19432286Y-34862714D01*
X19468000Y-34934143D01*
X19432286Y-35291285D02*
X19932286Y-35291285D01*
X19503714Y-35291285D02*
X19468000Y-35327000D01*
X19432286Y-35398428D01*
X19432286Y-35505571D01*
X19468000Y-35577000D01*
X19539429Y-35612714D01*
X19932286Y-35612714D01*
X19932286Y-36291285D02*
X19539429Y-36291285D01*
X19468000Y-36255571D01*
X19432286Y-36184142D01*
X19432286Y-36041285D01*
X19468000Y-35969856D01*
X19896571Y-36291285D02*
X19932286Y-36219856D01*
X19932286Y-36041285D01*
X19896571Y-35969856D01*
X19825143Y-35934142D01*
X19753714Y-35934142D01*
X19682286Y-35969856D01*
X19646571Y-36041285D01*
X19646571Y-36219856D01*
X19610857Y-36291285D01*
X19932286Y-36755570D02*
X19896571Y-36684142D01*
X19825143Y-36648427D01*
X19182286Y-36648427D01*
X20737286Y-21934144D02*
X20737286Y-22219858D01*
X21237286Y-22041286D02*
X20594429Y-22041286D01*
X20523000Y-22077001D01*
X20487286Y-22148429D01*
X20487286Y-22219858D01*
X21237286Y-22469857D02*
X20737286Y-22469857D01*
X20880143Y-22469857D02*
X20808714Y-22505572D01*
X20773000Y-22541286D01*
X20737286Y-22612715D01*
X20737286Y-22684143D01*
X21237286Y-23041286D02*
X21201571Y-22969858D01*
X21165857Y-22934143D01*
X21094429Y-22898429D01*
X20880143Y-22898429D01*
X20808714Y-22934143D01*
X20773000Y-22969858D01*
X20737286Y-23041286D01*
X20737286Y-23148429D01*
X20773000Y-23219858D01*
X20808714Y-23255572D01*
X20880143Y-23291286D01*
X21094429Y-23291286D01*
X21165857Y-23255572D01*
X21201571Y-23219858D01*
X21237286Y-23148429D01*
X21237286Y-23041286D01*
X21237286Y-23612714D02*
X20737286Y-23612714D01*
X20808714Y-23612714D02*
X20773000Y-23648429D01*
X20737286Y-23719857D01*
X20737286Y-23827000D01*
X20773000Y-23898429D01*
X20844429Y-23934143D01*
X21237286Y-23934143D01*
X20844429Y-23934143D02*
X20773000Y-23969857D01*
X20737286Y-24041286D01*
X20737286Y-24148429D01*
X20773000Y-24219857D01*
X20844429Y-24255572D01*
X21237286Y-24255572D01*
X21237286Y-25184143D02*
X20487286Y-25184143D01*
X21023000Y-25434143D01*
X20487286Y-25684143D01*
X21237286Y-25684143D01*
X21165857Y-26469858D02*
X21201571Y-26434144D01*
X21237286Y-26327001D01*
X21237286Y-26255572D01*
X21201571Y-26148429D01*
X21130143Y-26077001D01*
X21058714Y-26041286D01*
X20915857Y-26005572D01*
X20808714Y-26005572D01*
X20665857Y-26041286D01*
X20594429Y-26077001D01*
X20523000Y-26148429D01*
X20487286Y-26255572D01*
X20487286Y-26327001D01*
X20523000Y-26434144D01*
X20558714Y-26469858D01*
X20487286Y-26791286D02*
X21094429Y-26791286D01*
X21165857Y-26827001D01*
X21201571Y-26862715D01*
X21237286Y-26934144D01*
X21237286Y-27077001D01*
X21201571Y-27148429D01*
X21165857Y-27184144D01*
X21094429Y-27219858D01*
X20487286Y-27219858D01*
X20737286Y-28041287D02*
X20737286Y-28327001D01*
X20487286Y-28148429D02*
X21130143Y-28148429D01*
X21201571Y-28184144D01*
X21237286Y-28255572D01*
X21237286Y-28327001D01*
X21237286Y-28684143D02*
X21201571Y-28612715D01*
X21165857Y-28577000D01*
X21094429Y-28541286D01*
X20880143Y-28541286D01*
X20808714Y-28577000D01*
X20773000Y-28612715D01*
X20737286Y-28684143D01*
X20737286Y-28791286D01*
X20773000Y-28862715D01*
X20808714Y-28898429D01*
X20880143Y-28934143D01*
X21094429Y-28934143D01*
X21165857Y-28898429D01*
X21201571Y-28862715D01*
X21237286Y-28791286D01*
X21237286Y-28684143D01*
X21237286Y-29827000D02*
X20487286Y-29827000D01*
X20951571Y-29898429D02*
X21237286Y-30112715D01*
X20737286Y-30112715D02*
X21023000Y-29827000D01*
X21237286Y-30434143D02*
X20737286Y-30434143D01*
X20487286Y-30434143D02*
X20523000Y-30398429D01*
X20558714Y-30434143D01*
X20523000Y-30469858D01*
X20487286Y-30434143D01*
X20558714Y-30434143D01*
X21237286Y-30898429D02*
X21201571Y-30827001D01*
X21130143Y-30791286D01*
X20487286Y-30791286D01*
X21237286Y-31291286D02*
X21201571Y-31219858D01*
X21130143Y-31184143D01*
X20487286Y-31184143D01*
X21201571Y-32469858D02*
X21237286Y-32398429D01*
X21237286Y-32255572D01*
X21201571Y-32184144D01*
X21165857Y-32148429D01*
X21094429Y-32112715D01*
X20880143Y-32112715D01*
X20808714Y-32148429D01*
X20773000Y-32184144D01*
X20737286Y-32255572D01*
X20737286Y-32398429D01*
X20773000Y-32469858D01*
X21237286Y-32791286D02*
X20737286Y-32791286D01*
X20487286Y-32791286D02*
X20523000Y-32755572D01*
X20558714Y-32791286D01*
X20523000Y-32827001D01*
X20487286Y-32791286D01*
X20558714Y-32791286D01*
X21237286Y-33148429D02*
X20737286Y-33148429D01*
X20880143Y-33148429D02*
X20808714Y-33184144D01*
X20773000Y-33219858D01*
X20737286Y-33291287D01*
X20737286Y-33362715D01*
X21201571Y-33934144D02*
X21237286Y-33862715D01*
X21237286Y-33719858D01*
X21201571Y-33648430D01*
X21165857Y-33612715D01*
X21094429Y-33577001D01*
X20880143Y-33577001D01*
X20808714Y-33612715D01*
X20773000Y-33648430D01*
X20737286Y-33719858D01*
X20737286Y-33862715D01*
X20773000Y-33934144D01*
X20737286Y-34577001D02*
X21237286Y-34577001D01*
X20737286Y-34255572D02*
X21130143Y-34255572D01*
X21201571Y-34291287D01*
X21237286Y-34362715D01*
X21237286Y-34469858D01*
X21201571Y-34541287D01*
X21165857Y-34577001D01*
X21237286Y-34934143D02*
X20737286Y-34934143D01*
X20487286Y-34934143D02*
X20523000Y-34898429D01*
X20558714Y-34934143D01*
X20523000Y-34969858D01*
X20487286Y-34934143D01*
X20558714Y-34934143D01*
X20737286Y-35184144D02*
X20737286Y-35469858D01*
X20487286Y-35291286D02*
X21130143Y-35291286D01*
X21201571Y-35327001D01*
X21237286Y-35398429D01*
X21237286Y-35469858D01*
M02*
