G04 #@! TF.FileFunction,Legend,Top*
%FSLAX46Y46*%
G04 Gerber Fmt 4.6, Leading zero omitted, Abs format (unit mm)*
G04 Created by KiCad (PCBNEW 4.0.7) date 04/30/18 22:22:12*
%MOMM*%
%LPD*%
G01*
G04 APERTURE LIST*
%ADD10C,0.100000*%
%ADD11C,0.250000*%
%ADD12C,0.180000*%
%ADD13C,0.120000*%
G04 APERTURE END LIST*
D10*
D11*
X33853429Y-25273048D02*
X33853429Y-26034953D01*
X34162952Y-28265429D02*
X33401047Y-28265429D01*
X33781999Y-28646381D02*
X33781999Y-27884476D01*
D12*
X30784286Y-34153000D02*
X30784286Y-34510143D01*
X30034286Y-34510143D01*
X30784286Y-33903000D02*
X30284286Y-33903000D01*
X30034286Y-33903000D02*
X30070000Y-33938714D01*
X30105714Y-33903000D01*
X30070000Y-33867285D01*
X30034286Y-33903000D01*
X30105714Y-33903000D01*
X30284286Y-33545857D02*
X31034286Y-33545857D01*
X30320000Y-33545857D02*
X30284286Y-33474428D01*
X30284286Y-33331571D01*
X30320000Y-33260142D01*
X30355714Y-33224428D01*
X30427143Y-33188714D01*
X30641429Y-33188714D01*
X30712857Y-33224428D01*
X30748571Y-33260142D01*
X30784286Y-33331571D01*
X30784286Y-33474428D01*
X30748571Y-33545857D01*
X30784286Y-32760143D02*
X30748571Y-32831571D01*
X30712857Y-32867286D01*
X30641429Y-32903000D01*
X30427143Y-32903000D01*
X30355714Y-32867286D01*
X30320000Y-32831571D01*
X30284286Y-32760143D01*
X30284286Y-32653000D01*
X30320000Y-32581571D01*
X30355714Y-32545857D01*
X30427143Y-32510143D01*
X30641429Y-32510143D01*
X30712857Y-32545857D01*
X30748571Y-32581571D01*
X30784286Y-32653000D01*
X30784286Y-32760143D01*
X31339286Y-34974428D02*
X31339286Y-34545857D01*
X32089286Y-34760143D02*
X31339286Y-34760143D01*
X32089286Y-34295857D02*
X31589286Y-34295857D01*
X31339286Y-34295857D02*
X31375000Y-34331571D01*
X31410714Y-34295857D01*
X31375000Y-34260142D01*
X31339286Y-34295857D01*
X31410714Y-34295857D01*
X32089286Y-33938714D02*
X31589286Y-33938714D01*
X31660714Y-33938714D02*
X31625000Y-33902999D01*
X31589286Y-33831571D01*
X31589286Y-33724428D01*
X31625000Y-33652999D01*
X31696429Y-33617285D01*
X32089286Y-33617285D01*
X31696429Y-33617285D02*
X31625000Y-33581571D01*
X31589286Y-33510142D01*
X31589286Y-33402999D01*
X31625000Y-33331571D01*
X31696429Y-33295856D01*
X32089286Y-33295856D01*
X32053571Y-32652999D02*
X32089286Y-32724428D01*
X32089286Y-32867285D01*
X32053571Y-32938714D01*
X31982143Y-32974428D01*
X31696429Y-32974428D01*
X31625000Y-32938714D01*
X31589286Y-32867285D01*
X31589286Y-32724428D01*
X31625000Y-32652999D01*
X31696429Y-32617285D01*
X31767857Y-32617285D01*
X31839286Y-32974428D01*
X32089286Y-32295857D02*
X31589286Y-32295857D01*
X31732143Y-32295857D02*
X31660714Y-32260142D01*
X31625000Y-32224428D01*
X31589286Y-32152999D01*
X31589286Y-32081571D01*
X32644286Y-34813715D02*
X33180000Y-34813715D01*
X33287143Y-34849429D01*
X33358571Y-34920858D01*
X33394286Y-35028001D01*
X33394286Y-35099429D01*
X33394286Y-34456572D02*
X32644286Y-34456572D01*
X32644286Y-34278000D01*
X32680000Y-34170857D01*
X32751429Y-34099429D01*
X32822857Y-34063714D01*
X32965714Y-34028000D01*
X33072857Y-34028000D01*
X33215714Y-34063714D01*
X33287143Y-34099429D01*
X33358571Y-34170857D01*
X33394286Y-34278000D01*
X33394286Y-34456572D01*
X33394286Y-33706572D02*
X32644286Y-33706572D01*
X32644286Y-33528000D01*
X32680000Y-33420857D01*
X32751429Y-33349429D01*
X32822857Y-33313714D01*
X32965714Y-33278000D01*
X33072857Y-33278000D01*
X33215714Y-33313714D01*
X33287143Y-33349429D01*
X33358571Y-33420857D01*
X33394286Y-33528000D01*
X33394286Y-33706572D01*
X32894286Y-33028000D02*
X33394286Y-32849429D01*
X32894286Y-32670857D01*
X32715714Y-32420857D02*
X32680000Y-32385143D01*
X32644286Y-32313714D01*
X32644286Y-32135143D01*
X32680000Y-32063714D01*
X32715714Y-32028000D01*
X32787143Y-31992285D01*
X32858571Y-31992285D01*
X32965714Y-32028000D01*
X33394286Y-32456571D01*
X33394286Y-31992285D01*
X27114572Y-38487000D02*
X27043143Y-38451286D01*
X26936000Y-38451286D01*
X26828857Y-38487000D01*
X26757429Y-38558429D01*
X26721714Y-38629857D01*
X26686000Y-38772714D01*
X26686000Y-38879857D01*
X26721714Y-39022714D01*
X26757429Y-39094143D01*
X26828857Y-39165571D01*
X26936000Y-39201286D01*
X27007429Y-39201286D01*
X27114572Y-39165571D01*
X27150286Y-39129857D01*
X27150286Y-38879857D01*
X27007429Y-38879857D01*
X27471714Y-39201286D02*
X27471714Y-38451286D01*
X27900286Y-39201286D01*
X27900286Y-38451286D01*
X28257428Y-39201286D02*
X28257428Y-38451286D01*
X28436000Y-38451286D01*
X28543143Y-38487000D01*
X28614571Y-38558429D01*
X28650286Y-38629857D01*
X28686000Y-38772714D01*
X28686000Y-38879857D01*
X28650286Y-39022714D01*
X28614571Y-39094143D01*
X28543143Y-39165571D01*
X28436000Y-39201286D01*
X28257428Y-39201286D01*
X23316572Y-39201286D02*
X23316572Y-38451286D01*
X23495144Y-38451286D01*
X23602287Y-38487000D01*
X23673715Y-38558429D01*
X23709430Y-38629857D01*
X23745144Y-38772714D01*
X23745144Y-38879857D01*
X23709430Y-39022714D01*
X23673715Y-39094143D01*
X23602287Y-39165571D01*
X23495144Y-39201286D01*
X23316572Y-39201286D01*
X24209430Y-38451286D02*
X24352287Y-38451286D01*
X24423715Y-38487000D01*
X24495144Y-38558429D01*
X24530858Y-38701286D01*
X24530858Y-38951286D01*
X24495144Y-39094143D01*
X24423715Y-39165571D01*
X24352287Y-39201286D01*
X24209430Y-39201286D01*
X24138001Y-39165571D01*
X24066572Y-39094143D01*
X24030858Y-38951286D01*
X24030858Y-38701286D01*
X24066572Y-38558429D01*
X24138001Y-38487000D01*
X24209430Y-38451286D01*
X24852286Y-39201286D02*
X24852286Y-38451286D01*
X25280858Y-39201286D01*
X25280858Y-38451286D01*
X25638000Y-38808429D02*
X25888000Y-38808429D01*
X25995143Y-39201286D02*
X25638000Y-39201286D01*
X25638000Y-38451286D01*
X25995143Y-38451286D01*
X20590001Y-38451286D02*
X20840001Y-39201286D01*
X21090001Y-38451286D01*
X21768572Y-39129857D02*
X21732858Y-39165571D01*
X21625715Y-39201286D01*
X21554286Y-39201286D01*
X21447143Y-39165571D01*
X21375715Y-39094143D01*
X21340000Y-39022714D01*
X21304286Y-38879857D01*
X21304286Y-38772714D01*
X21340000Y-38629857D01*
X21375715Y-38558429D01*
X21447143Y-38487000D01*
X21554286Y-38451286D01*
X21625715Y-38451286D01*
X21732858Y-38487000D01*
X21768572Y-38522714D01*
X22518572Y-39129857D02*
X22482858Y-39165571D01*
X22375715Y-39201286D01*
X22304286Y-39201286D01*
X22197143Y-39165571D01*
X22125715Y-39094143D01*
X22090000Y-39022714D01*
X22054286Y-38879857D01*
X22054286Y-38772714D01*
X22090000Y-38629857D01*
X22125715Y-38558429D01*
X22197143Y-38487000D01*
X22304286Y-38451286D01*
X22375715Y-38451286D01*
X22482858Y-38487000D01*
X22518572Y-38522714D01*
D13*
X27086000Y-22702000D02*
X27086000Y-22002000D01*
X28286000Y-22002000D02*
X28286000Y-22702000D01*
X28864000Y-27020000D02*
X28864000Y-26320000D01*
X30064000Y-26320000D02*
X30064000Y-27020000D01*
X29930000Y-19326000D02*
X31030000Y-19326000D01*
X31030000Y-19326000D02*
X31030000Y-16726000D01*
X29930000Y-19326000D02*
X29930000Y-16726000D01*
X33316000Y-15726000D02*
X32216000Y-15726000D01*
X32216000Y-15726000D02*
X32216000Y-18326000D01*
X33316000Y-15726000D02*
X33316000Y-18326000D01*
X26502000Y-23760000D02*
X26502000Y-21960000D01*
X23282000Y-21960000D02*
X23282000Y-24410000D01*
X28856000Y-19414000D02*
X28406000Y-19414000D01*
X28856000Y-17564000D02*
X28856000Y-19414000D01*
X21056000Y-15014000D02*
X21056000Y-15264000D01*
X28856000Y-15014000D02*
X28856000Y-15264000D01*
X21056000Y-17564000D02*
X21056000Y-19414000D01*
X21056000Y-19414000D02*
X21506000Y-19414000D01*
X26656000Y-19964000D02*
X26206000Y-19964000D01*
X26656000Y-19964000D02*
X26656000Y-19514000D01*
X31160000Y-21344000D02*
X31160000Y-22344000D01*
X29800000Y-22344000D02*
X29800000Y-21344000D01*
X33446000Y-21344000D02*
X33446000Y-22344000D01*
X32086000Y-22344000D02*
X32086000Y-21344000D01*
X22778000Y-22106000D02*
X22778000Y-23106000D01*
X21418000Y-23106000D02*
X21418000Y-22106000D01*
X19042000Y-28874000D02*
X18042000Y-28874000D01*
X18042000Y-27514000D02*
X19042000Y-27514000D01*
X18042000Y-20656000D02*
X19042000Y-20656000D01*
X19042000Y-22016000D02*
X18042000Y-22016000D01*
X18042000Y-22180000D02*
X19042000Y-22180000D01*
X19042000Y-23540000D02*
X18042000Y-23540000D01*
X16428000Y-28964000D02*
X16428000Y-29964000D01*
X15068000Y-29964000D02*
X15068000Y-28964000D01*
X24266000Y-29500000D02*
X26026000Y-29500000D01*
X26026000Y-26430000D02*
X23596000Y-26430000D01*
X16932000Y-31358000D02*
X16932000Y-33158000D01*
X20152000Y-33158000D02*
X20152000Y-30708000D01*
X20768000Y-39310000D02*
X20768000Y-41970000D01*
X25908000Y-39310000D02*
X20768000Y-39310000D01*
X25908000Y-41970000D02*
X20768000Y-41970000D01*
X25908000Y-39310000D02*
X25908000Y-41970000D01*
X27178000Y-39310000D02*
X28508000Y-39310000D01*
X28508000Y-39310000D02*
X28508000Y-40640000D01*
X23352000Y-36996000D02*
X27852000Y-36996000D01*
X22102000Y-32996000D02*
X22102000Y-34496000D01*
X27852000Y-30496000D02*
X23352000Y-30496000D01*
X29102000Y-34496000D02*
X29102000Y-32996000D01*
X16932000Y-24500000D02*
X16932000Y-26300000D01*
X20152000Y-26300000D02*
X20152000Y-23850000D01*
X33080000Y-24324000D02*
X30420000Y-24324000D01*
X33080000Y-26924000D02*
X33080000Y-24324000D01*
X30420000Y-26924000D02*
X30420000Y-24324000D01*
X33080000Y-26924000D02*
X30420000Y-26924000D01*
X33080000Y-28194000D02*
X33080000Y-29524000D01*
X33080000Y-29524000D02*
X31750000Y-29524000D01*
D12*
X29223857Y-22477000D02*
X29259571Y-22512714D01*
X29295286Y-22619857D01*
X29295286Y-22691286D01*
X29259571Y-22798429D01*
X29188143Y-22869857D01*
X29116714Y-22905572D01*
X28973857Y-22941286D01*
X28866714Y-22941286D01*
X28723857Y-22905572D01*
X28652429Y-22869857D01*
X28581000Y-22798429D01*
X28545286Y-22691286D01*
X28545286Y-22619857D01*
X28581000Y-22512714D01*
X28616714Y-22477000D01*
X29295286Y-21762714D02*
X29295286Y-22191286D01*
X29295286Y-21977000D02*
X28545286Y-21977000D01*
X28652429Y-22048429D01*
X28723857Y-22119857D01*
X28759571Y-22191286D01*
X29731857Y-29589000D02*
X29767571Y-29624714D01*
X29803286Y-29731857D01*
X29803286Y-29803286D01*
X29767571Y-29910429D01*
X29696143Y-29981857D01*
X29624714Y-30017572D01*
X29481857Y-30053286D01*
X29374714Y-30053286D01*
X29231857Y-30017572D01*
X29160429Y-29981857D01*
X29089000Y-29910429D01*
X29053286Y-29803286D01*
X29053286Y-29731857D01*
X29089000Y-29624714D01*
X29124714Y-29589000D01*
X29124714Y-29303286D02*
X29089000Y-29267572D01*
X29053286Y-29196143D01*
X29053286Y-29017572D01*
X29089000Y-28946143D01*
X29124714Y-28910429D01*
X29196143Y-28874714D01*
X29267571Y-28874714D01*
X29374714Y-28910429D01*
X29803286Y-29339000D01*
X29803286Y-28874714D01*
X31763857Y-19400999D02*
X31799571Y-19436713D01*
X31835286Y-19543856D01*
X31835286Y-19615285D01*
X31799571Y-19722428D01*
X31728143Y-19793856D01*
X31656714Y-19829571D01*
X31513857Y-19865285D01*
X31406714Y-19865285D01*
X31263857Y-19829571D01*
X31192429Y-19793856D01*
X31121000Y-19722428D01*
X31085286Y-19615285D01*
X31085286Y-19543856D01*
X31121000Y-19436713D01*
X31156714Y-19400999D01*
X31835286Y-19079571D02*
X31085286Y-19079571D01*
X31835286Y-18758142D02*
X31442429Y-18758142D01*
X31371000Y-18793856D01*
X31335286Y-18865285D01*
X31335286Y-18972428D01*
X31371000Y-19043856D01*
X31406714Y-19079571D01*
X31835286Y-18079571D02*
X31442429Y-18079571D01*
X31371000Y-18115285D01*
X31335286Y-18186714D01*
X31335286Y-18329571D01*
X31371000Y-18401000D01*
X31799571Y-18079571D02*
X31835286Y-18151000D01*
X31835286Y-18329571D01*
X31799571Y-18401000D01*
X31728143Y-18436714D01*
X31656714Y-18436714D01*
X31585286Y-18401000D01*
X31549571Y-18329571D01*
X31549571Y-18151000D01*
X31513857Y-18079571D01*
X31835286Y-17722429D02*
X31335286Y-17722429D01*
X31478143Y-17722429D02*
X31406714Y-17686714D01*
X31371000Y-17651000D01*
X31335286Y-17579571D01*
X31335286Y-17508143D01*
X31335286Y-16936714D02*
X31942429Y-16936714D01*
X32013857Y-16972428D01*
X32049571Y-17008143D01*
X32085286Y-17079571D01*
X32085286Y-17186714D01*
X32049571Y-17258143D01*
X31799571Y-16936714D02*
X31835286Y-17008143D01*
X31835286Y-17151000D01*
X31799571Y-17222428D01*
X31763857Y-17258143D01*
X31692429Y-17293857D01*
X31478143Y-17293857D01*
X31406714Y-17258143D01*
X31371000Y-17222428D01*
X31335286Y-17151000D01*
X31335286Y-17008143D01*
X31371000Y-16936714D01*
X31835286Y-16579572D02*
X31335286Y-16579572D01*
X31085286Y-16579572D02*
X31121000Y-16615286D01*
X31156714Y-16579572D01*
X31121000Y-16543857D01*
X31085286Y-16579572D01*
X31156714Y-16579572D01*
X31335286Y-16222429D02*
X31835286Y-16222429D01*
X31406714Y-16222429D02*
X31371000Y-16186714D01*
X31335286Y-16115286D01*
X31335286Y-16008143D01*
X31371000Y-15936714D01*
X31442429Y-15901000D01*
X31835286Y-15901000D01*
X31335286Y-15222429D02*
X31942429Y-15222429D01*
X32013857Y-15258143D01*
X32049571Y-15293858D01*
X32085286Y-15365286D01*
X32085286Y-15472429D01*
X32049571Y-15543858D01*
X31799571Y-15222429D02*
X31835286Y-15293858D01*
X31835286Y-15436715D01*
X31799571Y-15508143D01*
X31763857Y-15543858D01*
X31692429Y-15579572D01*
X31478143Y-15579572D01*
X31406714Y-15543858D01*
X31371000Y-15508143D01*
X31335286Y-15436715D01*
X31335286Y-15293858D01*
X31371000Y-15222429D01*
X34121286Y-18722428D02*
X33371286Y-18722428D01*
X33371286Y-18543856D01*
X33407000Y-18436713D01*
X33478429Y-18365285D01*
X33549857Y-18329570D01*
X33692714Y-18293856D01*
X33799857Y-18293856D01*
X33942714Y-18329570D01*
X34014143Y-18365285D01*
X34085571Y-18436713D01*
X34121286Y-18543856D01*
X34121286Y-18722428D01*
X34121286Y-17865285D02*
X34085571Y-17936713D01*
X34049857Y-17972428D01*
X33978429Y-18008142D01*
X33764143Y-18008142D01*
X33692714Y-17972428D01*
X33657000Y-17936713D01*
X33621286Y-17865285D01*
X33621286Y-17758142D01*
X33657000Y-17686713D01*
X33692714Y-17650999D01*
X33764143Y-17615285D01*
X33978429Y-17615285D01*
X34049857Y-17650999D01*
X34085571Y-17686713D01*
X34121286Y-17758142D01*
X34121286Y-17865285D01*
X33621286Y-17293857D02*
X34121286Y-17293857D01*
X33692714Y-17293857D02*
X33657000Y-17258142D01*
X33621286Y-17186714D01*
X33621286Y-17079571D01*
X33657000Y-17008142D01*
X33728429Y-16972428D01*
X34121286Y-16972428D01*
X34085571Y-16329571D02*
X34121286Y-16401000D01*
X34121286Y-16543857D01*
X34085571Y-16615286D01*
X34014143Y-16651000D01*
X33728429Y-16651000D01*
X33657000Y-16615286D01*
X33621286Y-16543857D01*
X33621286Y-16401000D01*
X33657000Y-16329571D01*
X33728429Y-16293857D01*
X33799857Y-16293857D01*
X33871286Y-16651000D01*
X22360285Y-26247286D02*
X22360285Y-25497286D01*
X22610285Y-26033000D01*
X22860285Y-25497286D01*
X22860285Y-26247286D01*
X23646000Y-26175857D02*
X23610286Y-26211571D01*
X23503143Y-26247286D01*
X23431714Y-26247286D01*
X23324571Y-26211571D01*
X23253143Y-26140143D01*
X23217428Y-26068714D01*
X23181714Y-25925857D01*
X23181714Y-25818714D01*
X23217428Y-25675857D01*
X23253143Y-25604429D01*
X23324571Y-25533000D01*
X23431714Y-25497286D01*
X23503143Y-25497286D01*
X23610286Y-25533000D01*
X23646000Y-25568714D01*
X23967428Y-26247286D02*
X23967428Y-25497286D01*
X24253143Y-25497286D01*
X24324571Y-25533000D01*
X24360286Y-25568714D01*
X24396000Y-25640143D01*
X24396000Y-25747286D01*
X24360286Y-25818714D01*
X24324571Y-25854429D01*
X24253143Y-25890143D01*
X23967428Y-25890143D01*
X24646000Y-25497286D02*
X25146000Y-25497286D01*
X24824571Y-26247286D01*
X25360286Y-25497286D02*
X25824572Y-25497286D01*
X25574572Y-25783000D01*
X25681714Y-25783000D01*
X25753143Y-25818714D01*
X25788857Y-25854429D01*
X25824572Y-25925857D01*
X25824572Y-26104429D01*
X25788857Y-26175857D01*
X25753143Y-26211571D01*
X25681714Y-26247286D01*
X25467429Y-26247286D01*
X25396000Y-26211571D01*
X25360286Y-26175857D01*
X26253143Y-25818714D02*
X26181715Y-25783000D01*
X26146000Y-25747286D01*
X26110286Y-25675857D01*
X26110286Y-25640143D01*
X26146000Y-25568714D01*
X26181715Y-25533000D01*
X26253143Y-25497286D01*
X26396000Y-25497286D01*
X26467429Y-25533000D01*
X26503143Y-25568714D01*
X26538858Y-25640143D01*
X26538858Y-25675857D01*
X26503143Y-25747286D01*
X26467429Y-25783000D01*
X26396000Y-25818714D01*
X26253143Y-25818714D01*
X26181715Y-25854429D01*
X26146000Y-25890143D01*
X26110286Y-25961571D01*
X26110286Y-26104429D01*
X26146000Y-26175857D01*
X26181715Y-26211571D01*
X26253143Y-26247286D01*
X26396000Y-26247286D01*
X26467429Y-26211571D01*
X26503143Y-26175857D01*
X26538858Y-26104429D01*
X26538858Y-25961571D01*
X26503143Y-25890143D01*
X26467429Y-25854429D01*
X26396000Y-25818714D01*
X26788858Y-25497286D02*
X27253144Y-25497286D01*
X27003144Y-25783000D01*
X27110286Y-25783000D01*
X27181715Y-25818714D01*
X27217429Y-25854429D01*
X27253144Y-25925857D01*
X27253144Y-26104429D01*
X27217429Y-26175857D01*
X27181715Y-26211571D01*
X27110286Y-26247286D01*
X26896001Y-26247286D01*
X26824572Y-26211571D01*
X26788858Y-26175857D01*
X27967430Y-26247286D02*
X27538858Y-26247286D01*
X27753144Y-26247286D02*
X27753144Y-25497286D01*
X27681715Y-25604429D01*
X27610287Y-25675857D01*
X27538858Y-25711571D01*
X31835286Y-21969000D02*
X31478143Y-22219000D01*
X31835286Y-22397572D02*
X31085286Y-22397572D01*
X31085286Y-22111857D01*
X31121000Y-22040429D01*
X31156714Y-22004714D01*
X31228143Y-21969000D01*
X31335286Y-21969000D01*
X31406714Y-22004714D01*
X31442429Y-22040429D01*
X31478143Y-22111857D01*
X31478143Y-22397572D01*
X31835286Y-21254714D02*
X31835286Y-21683286D01*
X31835286Y-21469000D02*
X31085286Y-21469000D01*
X31192429Y-21540429D01*
X31263857Y-21611857D01*
X31299571Y-21683286D01*
X34121286Y-21969000D02*
X33764143Y-22219000D01*
X34121286Y-22397572D02*
X33371286Y-22397572D01*
X33371286Y-22111857D01*
X33407000Y-22040429D01*
X33442714Y-22004714D01*
X33514143Y-21969000D01*
X33621286Y-21969000D01*
X33692714Y-22004714D01*
X33728429Y-22040429D01*
X33764143Y-22111857D01*
X33764143Y-22397572D01*
X33442714Y-21683286D02*
X33407000Y-21647572D01*
X33371286Y-21576143D01*
X33371286Y-21397572D01*
X33407000Y-21326143D01*
X33442714Y-21290429D01*
X33514143Y-21254714D01*
X33585571Y-21254714D01*
X33692714Y-21290429D01*
X34121286Y-21719000D01*
X34121286Y-21254714D01*
X21421286Y-22731000D02*
X21064143Y-22981000D01*
X21421286Y-23159572D02*
X20671286Y-23159572D01*
X20671286Y-22873857D01*
X20707000Y-22802429D01*
X20742714Y-22766714D01*
X20814143Y-22731000D01*
X20921286Y-22731000D01*
X20992714Y-22766714D01*
X21028429Y-22802429D01*
X21064143Y-22873857D01*
X21064143Y-23159572D01*
X20671286Y-22481000D02*
X20671286Y-22016714D01*
X20957000Y-22266714D01*
X20957000Y-22159572D01*
X20992714Y-22088143D01*
X21028429Y-22052429D01*
X21099857Y-22016714D01*
X21278429Y-22016714D01*
X21349857Y-22052429D01*
X21385571Y-22088143D01*
X21421286Y-22159572D01*
X21421286Y-22373857D01*
X21385571Y-22445286D01*
X21349857Y-22481000D01*
X18417000Y-29803286D02*
X18167000Y-29446143D01*
X17988428Y-29803286D02*
X17988428Y-29053286D01*
X18274143Y-29053286D01*
X18345571Y-29089000D01*
X18381286Y-29124714D01*
X18417000Y-29196143D01*
X18417000Y-29303286D01*
X18381286Y-29374714D01*
X18345571Y-29410429D01*
X18274143Y-29446143D01*
X17988428Y-29446143D01*
X19059857Y-29303286D02*
X19059857Y-29803286D01*
X18881286Y-29017571D02*
X18702714Y-29553286D01*
X19167000Y-29553286D01*
X15623000Y-21675286D02*
X15373000Y-21318143D01*
X15194428Y-21675286D02*
X15194428Y-20925286D01*
X15480143Y-20925286D01*
X15551571Y-20961000D01*
X15587286Y-20996714D01*
X15623000Y-21068143D01*
X15623000Y-21175286D01*
X15587286Y-21246714D01*
X15551571Y-21282429D01*
X15480143Y-21318143D01*
X15194428Y-21318143D01*
X16301571Y-20925286D02*
X15944428Y-20925286D01*
X15908714Y-21282429D01*
X15944428Y-21246714D01*
X16015857Y-21211000D01*
X16194428Y-21211000D01*
X16265857Y-21246714D01*
X16301571Y-21282429D01*
X16337286Y-21353857D01*
X16337286Y-21532429D01*
X16301571Y-21603857D01*
X16265857Y-21639571D01*
X16194428Y-21675286D01*
X16015857Y-21675286D01*
X15944428Y-21639571D01*
X15908714Y-21603857D01*
X15623000Y-22945286D02*
X15373000Y-22588143D01*
X15194428Y-22945286D02*
X15194428Y-22195286D01*
X15480143Y-22195286D01*
X15551571Y-22231000D01*
X15587286Y-22266714D01*
X15623000Y-22338143D01*
X15623000Y-22445286D01*
X15587286Y-22516714D01*
X15551571Y-22552429D01*
X15480143Y-22588143D01*
X15194428Y-22588143D01*
X16265857Y-22195286D02*
X16123000Y-22195286D01*
X16051571Y-22231000D01*
X16015857Y-22266714D01*
X15944428Y-22373857D01*
X15908714Y-22516714D01*
X15908714Y-22802429D01*
X15944428Y-22873857D01*
X15980143Y-22909571D01*
X16051571Y-22945286D01*
X16194428Y-22945286D01*
X16265857Y-22909571D01*
X16301571Y-22873857D01*
X16337286Y-22802429D01*
X16337286Y-22623857D01*
X16301571Y-22552429D01*
X16265857Y-22516714D01*
X16194428Y-22481000D01*
X16051571Y-22481000D01*
X15980143Y-22516714D01*
X15944428Y-22552429D01*
X15908714Y-22623857D01*
X16087286Y-32383000D02*
X15730143Y-32633000D01*
X16087286Y-32811572D02*
X15337286Y-32811572D01*
X15337286Y-32525857D01*
X15373000Y-32454429D01*
X15408714Y-32418714D01*
X15480143Y-32383000D01*
X15587286Y-32383000D01*
X15658714Y-32418714D01*
X15694429Y-32454429D01*
X15730143Y-32525857D01*
X15730143Y-32811572D01*
X15337286Y-32133000D02*
X15337286Y-31633000D01*
X16087286Y-31954429D01*
X23578571Y-30529571D02*
X23685714Y-30565286D01*
X23864285Y-30565286D01*
X23935714Y-30529571D01*
X23971428Y-30493857D01*
X24007143Y-30422429D01*
X24007143Y-30351000D01*
X23971428Y-30279571D01*
X23935714Y-30243857D01*
X23864285Y-30208143D01*
X23721428Y-30172429D01*
X23650000Y-30136714D01*
X23614285Y-30101000D01*
X23578571Y-30029571D01*
X23578571Y-29958143D01*
X23614285Y-29886714D01*
X23650000Y-29851000D01*
X23721428Y-29815286D01*
X23900000Y-29815286D01*
X24007143Y-29851000D01*
X24328571Y-30565286D02*
X24328571Y-29815286D01*
X24614286Y-29815286D02*
X25078572Y-29815286D01*
X24828572Y-30101000D01*
X24935714Y-30101000D01*
X25007143Y-30136714D01*
X25042857Y-30172429D01*
X25078572Y-30243857D01*
X25078572Y-30422429D01*
X25042857Y-30493857D01*
X25007143Y-30529571D01*
X24935714Y-30565286D01*
X24721429Y-30565286D01*
X24650000Y-30529571D01*
X24614286Y-30493857D01*
X25507143Y-30136714D02*
X25435715Y-30101000D01*
X25400000Y-30065286D01*
X25364286Y-29993857D01*
X25364286Y-29958143D01*
X25400000Y-29886714D01*
X25435715Y-29851000D01*
X25507143Y-29815286D01*
X25650000Y-29815286D01*
X25721429Y-29851000D01*
X25757143Y-29886714D01*
X25792858Y-29958143D01*
X25792858Y-29993857D01*
X25757143Y-30065286D01*
X25721429Y-30101000D01*
X25650000Y-30136714D01*
X25507143Y-30136714D01*
X25435715Y-30172429D01*
X25400000Y-30208143D01*
X25364286Y-30279571D01*
X25364286Y-30422429D01*
X25400000Y-30493857D01*
X25435715Y-30529571D01*
X25507143Y-30565286D01*
X25650000Y-30565286D01*
X25721429Y-30529571D01*
X25757143Y-30493857D01*
X25792858Y-30422429D01*
X25792858Y-30279571D01*
X25757143Y-30208143D01*
X25721429Y-30172429D01*
X25650000Y-30136714D01*
X26257144Y-29815286D02*
X26328572Y-29815286D01*
X26400001Y-29851000D01*
X26435715Y-29886714D01*
X26471429Y-29958143D01*
X26507144Y-30101000D01*
X26507144Y-30279571D01*
X26471429Y-30422429D01*
X26435715Y-30493857D01*
X26400001Y-30529571D01*
X26328572Y-30565286D01*
X26257144Y-30565286D01*
X26185715Y-30529571D01*
X26150001Y-30493857D01*
X26114286Y-30422429D01*
X26078572Y-30279571D01*
X26078572Y-30101000D01*
X26114286Y-29958143D01*
X26150001Y-29886714D01*
X26185715Y-29851000D01*
X26257144Y-29815286D01*
X27185715Y-29815286D02*
X26828572Y-29815286D01*
X26792858Y-30172429D01*
X26828572Y-30136714D01*
X26900001Y-30101000D01*
X27078572Y-30101000D01*
X27150001Y-30136714D01*
X27185715Y-30172429D01*
X27221430Y-30243857D01*
X27221430Y-30422429D01*
X27185715Y-30493857D01*
X27150001Y-30529571D01*
X27078572Y-30565286D01*
X26900001Y-30565286D01*
X26828572Y-30529571D01*
X26792858Y-30493857D01*
X20163286Y-32829429D02*
X20770429Y-32829429D01*
X20841857Y-32793714D01*
X20877571Y-32758000D01*
X20913286Y-32686571D01*
X20913286Y-32543714D01*
X20877571Y-32472286D01*
X20841857Y-32436571D01*
X20770429Y-32400857D01*
X20163286Y-32400857D01*
X20234714Y-32079429D02*
X20199000Y-32043715D01*
X20163286Y-31972286D01*
X20163286Y-31793715D01*
X20199000Y-31722286D01*
X20234714Y-31686572D01*
X20306143Y-31650857D01*
X20377571Y-31650857D01*
X20484714Y-31686572D01*
X20913286Y-32115143D01*
X20913286Y-31650857D01*
X22810714Y-37895571D02*
X22917857Y-37931286D01*
X23096428Y-37931286D01*
X23167857Y-37895571D01*
X23203571Y-37859857D01*
X23239286Y-37788429D01*
X23239286Y-37717000D01*
X23203571Y-37645571D01*
X23167857Y-37609857D01*
X23096428Y-37574143D01*
X22953571Y-37538429D01*
X22882143Y-37502714D01*
X22846428Y-37467000D01*
X22810714Y-37395571D01*
X22810714Y-37324143D01*
X22846428Y-37252714D01*
X22882143Y-37217000D01*
X22953571Y-37181286D01*
X23132143Y-37181286D01*
X23239286Y-37217000D01*
X23489286Y-37181286D02*
X23667857Y-37931286D01*
X23810714Y-37395571D01*
X23953572Y-37931286D01*
X24132143Y-37181286D01*
X24239286Y-38002714D02*
X24810715Y-38002714D01*
X24989286Y-37931286D02*
X24989286Y-37181286D01*
X25275001Y-37181286D01*
X25346429Y-37217000D01*
X25382144Y-37252714D01*
X25417858Y-37324143D01*
X25417858Y-37431286D01*
X25382144Y-37502714D01*
X25346429Y-37538429D01*
X25275001Y-37574143D01*
X24989286Y-37574143D01*
X25846429Y-37931286D02*
X25775001Y-37895571D01*
X25739286Y-37859857D01*
X25703572Y-37788429D01*
X25703572Y-37574143D01*
X25739286Y-37502714D01*
X25775001Y-37467000D01*
X25846429Y-37431286D01*
X25953572Y-37431286D01*
X26025001Y-37467000D01*
X26060715Y-37502714D01*
X26096429Y-37574143D01*
X26096429Y-37788429D01*
X26060715Y-37859857D01*
X26025001Y-37895571D01*
X25953572Y-37931286D01*
X25846429Y-37931286D01*
X26346429Y-37431286D02*
X26489286Y-37931286D01*
X26632143Y-37574143D01*
X26775000Y-37931286D01*
X26917857Y-37431286D01*
X27489286Y-37895571D02*
X27417857Y-37931286D01*
X27275000Y-37931286D01*
X27203571Y-37895571D01*
X27167857Y-37824143D01*
X27167857Y-37538429D01*
X27203571Y-37467000D01*
X27275000Y-37431286D01*
X27417857Y-37431286D01*
X27489286Y-37467000D01*
X27525000Y-37538429D01*
X27525000Y-37609857D01*
X27167857Y-37681286D01*
X27846428Y-37931286D02*
X27846428Y-37431286D01*
X27846428Y-37574143D02*
X27882143Y-37502714D01*
X27917857Y-37467000D01*
X27989286Y-37431286D01*
X28060714Y-37431286D01*
X16099286Y-25971429D02*
X16706429Y-25971429D01*
X16777857Y-25935714D01*
X16813571Y-25900000D01*
X16849286Y-25828571D01*
X16849286Y-25685714D01*
X16813571Y-25614286D01*
X16777857Y-25578571D01*
X16706429Y-25542857D01*
X16099286Y-25542857D01*
X16099286Y-25257143D02*
X16099286Y-24792857D01*
X16385000Y-25042857D01*
X16385000Y-24935715D01*
X16420714Y-24864286D01*
X16456429Y-24828572D01*
X16527857Y-24792857D01*
X16706429Y-24792857D01*
X16777857Y-24828572D01*
X16813571Y-24864286D01*
X16849286Y-24935715D01*
X16849286Y-25150000D01*
X16813571Y-25221429D01*
X16777857Y-25257143D01*
X31164714Y-30172429D02*
X31271857Y-30208143D01*
X31307572Y-30243857D01*
X31343286Y-30315286D01*
X31343286Y-30422429D01*
X31307572Y-30493857D01*
X31271857Y-30529571D01*
X31200429Y-30565286D01*
X30914714Y-30565286D01*
X30914714Y-29815286D01*
X31164714Y-29815286D01*
X31236143Y-29851000D01*
X31271857Y-29886714D01*
X31307572Y-29958143D01*
X31307572Y-30029571D01*
X31271857Y-30101000D01*
X31236143Y-30136714D01*
X31164714Y-30172429D01*
X30914714Y-30172429D01*
X31629000Y-30351000D02*
X31986143Y-30351000D01*
X31557572Y-30565286D02*
X31807572Y-29815286D01*
X32057572Y-30565286D01*
X32200429Y-29815286D02*
X32629000Y-29815286D01*
X32414714Y-30565286D02*
X32414714Y-29815286D01*
X32771858Y-29815286D02*
X33200429Y-29815286D01*
X32986143Y-30565286D02*
X32986143Y-29815286D01*
M02*
